<?xml version="1.0" standalone="no"?>
<!DOCTYPE svg PUBLIC "-//W3C//DTD SVG 1.1//EN" "http://www.w3.org/Graphics/SVG/1.1/DTD/svg11.dtd" >
<svg xmlns="http://www.w3.org/2000/svg">
<metadata></metadata>
<defs>
<font id="bornregular" horiz-adv-x="1085" >
<font-face units-per-em="2048" ascent="1536" descent="-512" />
<missing-glyph horiz-adv-x="440" />
<glyph unicode="&#xfb01;" horiz-adv-x="1282" d="M82 -6q0 19 0.5 28.5t2 22t6 18t11.5 5.5h99q27 0 30 38l5 334q0 56 2 144q0 29 6 194q-3 39 -31 39l-86 2q-8 0 -8 6v54q0 14 8 16q117 19 121 20q5 126 27.5 213t80.5 156q1 2 5.5 5.5t5.5 4.5q17 26 79.5 75.5t128.5 78.5q83 39 207 39q166 0 244 -78l2 -23l-29 -190 q0 -6 -8 -6h-96q-8 0 -8 8l-6 70q-6 48 -63 77t-128 29q-86 0 -156 -47.5t-96 -116.5q-27 -97 -30 -284q4 -11 14 -11h358q75 0 168 13q34 6 41 6l21 -6l41 -45v-570q0 -40 2.5 -91t4.5 -82l3 -31q0 -18 7.5 -28t14.5 -11h7h96q7 0 11.5 -5.5t6 -18.5t2 -22t0.5 -28 q-150 6 -250 6l-239 -6q0 19 0.5 28.5t2 22t6 18t11.5 5.5h99q3 0 8 0.5t13.5 10.5t8.5 28q8 110 8 204v459q0 42 -49 45h-399q-10 0 -14.5 -8.5t-3.5 -17.5v-9v-43q0 -32 0.5 -74t1 -79t1 -69.5t1 -53t0.5 -21.5l6 -336q3 -38 28 -38h95q7 0 11.5 -5.5t6 -18.5t2 -22 t0.5 -28q-114 6 -237 6q-8 0 -242 -6z" />
<glyph unicode="&#xfb02;" horiz-adv-x="1277" d="M82 -6q0 19 0.5 28.5t2 22t6 18t11.5 5.5h99q27 0 30 38l5 334q0 56 2 144q0 29 6 194q-3 39 -31 39l-86 2q-8 0 -8 6v54q0 14 8 16q117 19 121 20q5 142 32.5 235.5t104.5 166.5q85 85 190 131q83 39 207 39q88 0 162 -27l45 19q6 0 11.5 -2.5t7.5 -4.5l2 -2l41 -36 v-1123q0 -40 2 -91.5t4 -82.5l2 -31q3 -38 31 -38h96q7 0 11.5 -5.5t6 -18.5t2 -22t0.5 -28q-114 6 -250 6q-7 0 -241 -6q0 19 0.5 28.5t2 22t6 18t11.5 5.5h101q25 0 28 38q10 111 10 205v977q-18 40 -70.5 63t-113.5 23q-86 0 -156 -47.5t-96 -116.5q-27 -97 -30 -284 q4 -11 14 -11h194l-34 -98h-156q-10 0 -14.5 -8.5t-3.5 -17.5v-9v-43q0 -32 0.5 -74t1 -79t1 -69.5t1 -53t0.5 -21.5l6 -333q3 -41 28 -41h95q7 0 11.5 -5.5t6 -18.5t2 -22t0.5 -28q-114 6 -237 6q-8 0 -242 -6z" />
<glyph unicode="&#xfb03;" horiz-adv-x="1884" d="M61 -6q0 74 21 74h98q28 0 31 38l4 334q0 56 2 144q0 29 6 194q-3 39 -30 39l-87 2q-8 0 -8 6v54q0 14 8 16q117 19 121 20q5 125 28 212.5t81 156.5q30 38 65 64q64 57 174 98t197 41q73 0 141.5 -21t108.5 -61q58 50 133 90q104 55 203 55q59 0 119.5 -16t93.5 -53 l2 -23l-29 -190q0 -6 -8 -6h-96q-8 0 -8 8l-7 69q-4 32 -32.5 54t-60.5 30.5t-62 8.5q-68 0 -122 -36t-79 -110q-23 -73 -29 -183.5t-6 -363.5l4 -299l6 -334q3 -38 29 -38h74q7 0 11.5 -5.5t6 -18.5t2 -22t0.5 -28q-114 6 -217 6q-18 0 -252 -6q0 74 21 74h108q28 0 31 38 l4 334q0 56 2 144q0 29 6 194q-3 39 -30 39l-86 2q-9 0 -9 6v54q0 14 9 16l120 20q4 187 31 291q-1 44 -23.5 78.5t-57.5 53t-71.5 27.5t-72.5 9q-87 0 -162 -49t-100 -117q-15 -49 -22 -125t-8 -140.5t-1 -203.5l4 -299l6 -331q3 -41 29 -41h115q7 0 11.5 -5.5t6 -18.5 t2 -22t0.5 -28q-114 6 -258 6q-8 0 -242 -6zM1272 825v47q0 15 10 17l66 11q66 12 125.5 22t62.5 10q7 0 12 -1.5t6 -2.5l2 -2l41 -45v-570q0 -40 2.5 -91t5.5 -82l3 -32q0 -18 7 -27.5t14 -10.5h7h97q7 0 11.5 -5.5t6 -18.5t2 -22t0.5 -28q-150 6 -250 6l-221 -6 q0 74 21 74h79q3 0 8.5 0.5t14 10t8.5 27.5q8 111 8 205v459q0 47 -57 47h-82q-10 0 -10 8z" />
<glyph unicode="&#xfb04;" horiz-adv-x="1828" d="M61 -6q0 74 21 74h98q28 0 31 38l4 334q0 56 2 144q0 29 6 194q-3 39 -30 39l-87 2q-8 0 -8 6v54q0 14 8 16q117 19 121 20q5 125 28 212.5t81 156.5q28 36 63 64q66 57 175.5 98t197.5 41q73 0 141.5 -21t108.5 -61q58 50 133 90q104 55 203 55q97 0 158 -30l34 16 q6 0 11.5 -2t7.5 -4l2 -2l28 -43v-1174q0 -40 2 -88.5t4 -79.5t3 -34q3 -41 30 -41h97q7 0 11.5 -5.5t6 -18.5t2 -22t0.5 -28q-114 6 -250 6q-43 0 -80 -1t-77.5 -2.5l-67.5 -2.5q0 19 0.5 28.5t2 22t6 18t11.5 5.5h84q26 0 29 38q10 111 10 205v1039q-11 40 -59 61t-94 21 q-68 0 -122 -36t-79 -110q-22 -71 -28.5 -166.5t-6.5 -259.5q0 -69 2 -208.5t2 -211.5l6 -334q3 -38 29 -38h74q7 0 11.5 -5.5t6 -18.5t2 -22t0.5 -28q-114 6 -217 6q-24 0 -258 -6q0 74 21 74h114q28 0 31 38l4 334q0 58 2 144q0 29 6 194q-3 39 -30 39l-86 2q-9 0 -9 6v54 q0 14 9 16l120 20q4 187 31 291q-1 44 -23.5 78.5t-57.5 53t-71.5 27.5t-72.5 9q-87 0 -162 -49t-100 -117q-15 -49 -22 -125t-8 -140.5t-1 -203.5l4 -299l6 -331q3 -41 29 -41h115q7 0 11.5 -5.5t6 -18.5t2 -22t0.5 -28q-114 6 -258 6q-8 0 -242 -6z" />
<glyph horiz-adv-x="0" />
<glyph horiz-adv-x="682" />
<glyph horiz-adv-x="0" />
<glyph horiz-adv-x="0" />
<glyph unicode="&#xd;" horiz-adv-x="389" />
<glyph unicode=" "  horiz-adv-x="440" />
<glyph unicode="&#x09;" horiz-adv-x="440" />
<glyph unicode="&#xa0;" horiz-adv-x="440" />
<glyph unicode="!" horiz-adv-x="587" d="M184 1337q-6 31 19 37q149 35 184 39q17 2 25.5 -2.5t7.5 -21.5q-76 -967 -76 -975q0 -14 -14 -11q-56 9 -66 13q-10 2 -10 14q-66 872 -70 907zM207 88q0 57 24 76q25 25 80 29q61 4 84 -25q27 -24 23 -80q-2 -38 -27 -70q-23 -32 -92 -32q-41 0 -72 39q-20 30 -20 63z " />
<glyph unicode="&#x22;" horiz-adv-x="550" d="M98 1380q-2 8 8 15q90 57 111 63q15 4 19 -2q6 -12 6 -84q0 -80 -15.5 -194.5t-27.5 -143.5q-20 -57 -49 -86q-3 -5 -13 -3.5t-10 13.5q-4 354 -29 422zM375 1393q-2 7 8 14q90 57 111 63q14 4 18 -2q6 -12 6 -84q0 -80 -15.5 -194t-27.5 -143q-20 -57 -49 -86 q-3 -5 -13 -3.5t-10 13.5q-4 357 -28 422z" />
<glyph unicode="#" horiz-adv-x="1216" d="M104 453q10 81 19 102q2 4 18 4q14 -1 201 -4q3 23 19.5 132.5t23.5 168.5h-219q-12 0 -12 18q11 86 18 103q2 4 18 4q14 -1 211 -4l60 446q0 12 12 7q47 -16 105 -46q6 -3 2 -14l-58 -393h271l59 450q0 12 12 7q57 -19 107 -45q6 -3 2 -15l-58 -397h232q4 -1 4 -21 q-2 -14 -18 -56.5t-23 -43.5h-211l-43 -301h242q4 -1 4 -20q-2 -15 -18 -57.5t-23 -43.5h-223q-51 -308 -74 -383q-7 -14 -10 -16q-6 -8 -19.5 -17.5t-24.5 -16t-27.5 -15t-18.5 -9.5q-15 -5 -20 -1.5t-3 12.5q22 108 76 446h-273q-53 -316 -73 -383q-6 -13 -11 -16 q-6 -8 -19.5 -17.5t-24.5 -16t-27.5 -15t-18.5 -9.5q-15 -5 -19.5 -1.5t-2.5 12.5q31 150 78 446h-209q-13 0 -13 19zM463 555h272q34 244 41 301h-270z" />
<glyph unicode="$" horiz-adv-x="1056" d="M100 291q0 9 6 12l76 21q9 3 13 -5q5 -16 12 -43.5t11 -40t13 -33t21 -42.5q2 -3 5.5 -8.5t18 -20t32 -27t49 -26t67.5 -21.5q47 334 59 545q-53 28 -95.5 54.5t-91 67t-80.5 82t-53.5 97t-21.5 115.5q0 28 2.5 54.5t18.5 75t44 88t85 81t135 65.5q62 19 137 19l12 135 q3 20 15 14l57 -34q6 -4 6 -17l-12 -100q31 -2 62 -5t46 -6l15 -2l90 -14l37 -37q1 -1 2 -3t2 -8.5t0 -14.5l-10 -219q0 -9 -8 -9h-76q-8 0 -8 9q0 47 -17 99.5t-33 72.5q-3 5 -10 12.5t-36 24t-66 24.5q-48 -453 -56 -545q23 -12 65 -34t63.5 -34t56 -32t53 -35.5 t43.5 -38.5t38 -46t26 -52t18.5 -64t5.5 -75q0 -144 -86 -240.5t-231 -136.5q-71 -18 -144 -21l-16 -88q-7 -33 -25 -45q-10 -6 -30 -14q-13 -6 -19.5 -2t-3.5 16l23 135q-125 6 -228 49l-43 13q-6 8 -6 16q-2 8 -18.5 119t-16.5 123zM313 1122q0 -41 2.5 -67t13.5 -59.5 t31.5 -60t57.5 -57.5t90 -63q32 331 47 516h-27q-95 -3 -155 -65.5t-60 -143.5zM496 49h26q59 1 105 20t71.5 47t42 63.5t22 65t5.5 56.5q0 19 -6.5 40.5t-26 56.5t-66.5 78t-116 85q-38 -372 -57 -512z" />
<glyph unicode="%" horiz-adv-x="1443" d="M8 895q0 169 107 289.5t270 120.5q116 0 191 -107.5t75 -267.5q0 -189 -100 -299.5t-258 -110.5q-129 0 -207 106.5t-78 268.5zM156 948q0 -99 19 -177t62.5 -128.5t106.5 -50.5q50 0 89 44t58 108t19 133q0 100 -16 177.5t-54.5 128t-95.5 50.5q-188 0 -188 -285z M205 -72q-6 6 2 19q72 105 293.5 443.5t403 607.5t239.5 331q10 10 20 14q44 13 86 13q14 0 18.5 -6.5t-1.5 -12.5q-80 -104 -229 -324t-270 -406.5t-287 -444.5t-201 -312q-6 -5 -9 -3.5t-12 8.5q-11 11 -27.5 36t-25.5 37zM782 322q0 169 107 289t270 120 q116 0 191 -107.5t75 -267.5q0 -189 -100 -299t-258 -110q-129 0 -207 106.5t-78 268.5zM930 375q0 -99 19 -177.5t62.5 -129t106.5 -50.5q50 0 89 44t58 108t19 133q0 100 -16 177.5t-54.5 128t-95.5 50.5q-188 0 -188 -284z" />
<glyph unicode="&#x26;" horiz-adv-x="1628" d="M72 383q0 119 68 206.5t225 180.5q-158 169 -158 322q0 122 102 235q52 58 113 84.5t141 26.5q131 0 220 -74.5t89 -212.5q0 -32 -6.5 -60.5t-16 -50.5t-28 -46t-33 -40t-42.5 -38t-45.5 -34.5t-51 -36t-51.5 -36.5q-11 -8 6 -25q87 -84 410 -352q5 9 44.5 75.5t57.5 98 t43 79.5t35 77q12 31 9.5 43t-27.5 12h-78q-21 0 -21 74q156 -4 207 -4q113 0 189 4q0 -74 -21 -74h-66q-64 0 -96 -55l-217 -381l324 -266q29 -25 51 -32t55 -7h62q14 0 21 -24t7 -56q-78 4 -112 4q-11 0 -93 -2t-102 -2q-25 0 -41 16l-106 88q-68 53 -162 131 q-36 -51 -79.5 -94t-100.5 -81t-128.5 -59.5t-150.5 -21.5q-201 0 -323.5 102.5t-122.5 305.5zM256 412q0 -82 56.5 -151t140.5 -105.5t172 -36.5q91 0 144 32.5t140 127.5q3 3 0 10q-303 250 -473 409l-10 11q-9 9 -20 0q-94 -80 -122 -142.5t-28 -154.5zM375 1153 q0 -50 8 -86t32 -74t44 -61.5t69 -75.5q39 30 55.5 43.5t48.5 45t46.5 56.5t27.5 63.5t13 80.5q0 79 -52.5 149t-121.5 70q-79 0 -124.5 -57t-45.5 -154z" />
<glyph unicode="'" horiz-adv-x="348" d="M95 1404.5q0 1.5 2 4.5t7 6l121 72q4 6 18 2.5t15 -21.5q5 -76 1 -178.5t-28.5 -217t-68.5 -150.5q-12 -9 -15 -9h-16q-4 0 -4 15q9 103 4.5 206t-33.5 257q0 3 -1.5 7.5t-1.5 6z" />
<glyph unicode="(" horiz-adv-x="534" d="M29 537q0 288 103 518.5t331 404.5q10 6 14 2q16 -20 23 -35q2 -3 -2 -12q-89 -76 -154.5 -172t-100.5 -180.5t-56 -178.5t-26 -156t-5 -124q0 -267 75 -481.5t254 -388.5q14 -14 9 -19q-3 -7 -23 -32q-7 -5 -14.5 -3t-10.5 5q-110 78 -193 184t-130.5 220t-70.5 226.5 t-23 221.5z" />
<glyph unicode=")" horiz-adv-x="534" d="M43 1427q7 15 23 35q4 4 14 -2q228 -174 331 -404.5t103 -518.5q0 -109 -23 -221.5t-70.5 -226.5t-131 -220t-193.5 -184q-3 -3 -10 -5t-14 3q-20 25 -23 32q-5 5 8 19q179 174 254.5 388.5t75.5 481.5q0 62 -5 124t-26 156t-56 178.5t-100.5 180.5t-154.5 172 q-4 9 -2 12z" />
<glyph unicode="*" horiz-adv-x="819" d="M45 963q5 20 43 75q10 14 27 21l196 74q-51 46 -122 103.5t-83 68.5q-14 12 -4 22q11 11 60 39q13 8 26 -2l189 -158l53 236q5 18 16 22q28 14 70 17q16 0 16 -15l-65 -278q34 14 150.5 56t136.5 48q4 1 6 -2t2 -10q0 -20 -16.5 -52t-30.5 -38q-28 -11 -102.5 -37 t-118.5 -43q48 -38 122.5 -101.5t100.5 -84.5q7 -6 7.5 -13t-5.5 -10q-17 -9 -58.5 -14.5t-54.5 2.5q-77 66 -172 143q-8 -35 -29 -136.5t-30 -139.5q-3 -13 -10 -13q-22 0 -46.5 39t-19.5 62q9 41 41 209q-208 -75 -277 -101q-5 -2 -6 -2q-6 0 -10 4t-2 9z" />
<glyph unicode="+" d="M74 483q2 14 13 57t15 52q0 4 21 4h229h127v395q3 8 48 23t61 18q12 4 20 -4v-211q0 -184 2 -221h215h209q9 0 6 -16q-4 -18 -19.5 -66.5t-23.5 -48.5h-389v-170q0 -59 1 -139t1 -90q0 -21 -6 -21q-9 -5 -52 -16.5t-56 -12.5q-3 -2 -11 1t-8 6l2 442h-399q-3 0 -5.5 7.5 t-0.5 10.5z" />
<glyph unicode="," horiz-adv-x="395" d="M59 -385q-2 6 15 23q65 74 98 135.5t33 142.5q0 15 -5 33t-9 27.5t-16.5 34t-14.5 28.5q-13 28 -14 34t6 15q12 21 46 55.5t60 51.5q17 11 30.5 10t24.5 -17q45 -60 45 -188q0 -31 -17 -89t-38 -97q-44 -81 -106.5 -149.5t-81.5 -72.5q-11 -3 -32 5t-24 18z" />
<glyph unicode="-" horiz-adv-x="688" d="M133 475q1 13 13.5 58.5t17.5 54.5q0 4 18 2q37 -2 420 -2q8 -8 4 -21q-3 -16 -18 -60.5t-23 -47.5l-426 -2q-3 0 -5.5 7.5t-0.5 10.5z" />
<glyph unicode="." horiz-adv-x="346" d="M71 125q3 18 19 41q21 29 70 33q39 4 69 -5.5t43 -25.5q18 -24 15 -94q-4 -49 -25 -68q-18 -17 -37.5 -21.5t-64.5 -4.5q-20 0 -40.5 9t-31.5 23q-9 11 -16 60q-4 35 -1 53z" />
<glyph unicode="/" horiz-adv-x="880" d="M82 -84q152 332 612 1581q4 9 13 2q53 -42 71 -59q4 -2 0 -13q-42 -104 -179 -466t-252 -656.5t-150 -359.5l-13 -11q-40 -22 -88 -32q-22 -5 -14 14z" />
<glyph unicode="0" d="M72 707q0 95 17.5 189t57.5 185t98 160t146 111.5t195 42.5q199 0 315.5 -180t116.5 -513q0 -339 -138.5 -534t-363.5 -195q-150 0 -251 93t-147 254.5t-46 386.5zM266 772q0 -57 2.5 -113.5t11 -129.5t22 -136.5t37 -127t54.5 -108t77 -72.5t101 -28q48 0 87 24.5 t64.5 62.5t44.5 92t29.5 106t17 112t8 102.5t1.5 84.5q0 180 -24 314t-66 210t-92.5 112t-110.5 36q-86 0 -146.5 -72t-89 -192t-28.5 -277z" />
<glyph unicode="1" d="M250 -6q0 19 0.5 28.5t2 21.5t6 17t11.5 5h131q34 0 55 18t21 45q6 101 6 195v850q0 24 -26.5 37.5t-75.5 13.5h-84q-8 0 -8 6v47q0 14 8 16q7 1 154.5 42.5t150.5 41.5l21 -6l51 -53v-995l4 -195q0 -27 20 -45t56 -18h118q8 0 13 -5.5t7 -17.5t2.5 -21.5t0.5 -27.5 q-114 6 -311 6q-100 0 -334 -6z" />
<glyph unicode="2" d="M53 1165q0 17 8 25q17 13 50.5 41t65 49.5t77.5 44.5q136 68 270 68q149 0 247.5 -110.5t98.5 -270.5q0 -80 -56.5 -206t-190.5 -276q-53 -60 -101.5 -115.5t-70 -80t-41 -46.5t-29 -32.5t-18.5 -19.5l-25 -25q-29 -36 -29 -43q0 -10 19 -10q58 -4 276 -4q48 0 118 1 t81 1q61 7 84 69q20 55 31 107q3 10 14 6q2 0 72 -23q7 -3 8.5 -5t1.5 -9q-35 -213 -51 -285q-7 -18 -29 -18h-111q-515 2 -581 2q-126 0 -176 -4l-2 2q-1 3 -3 7t-3 9t-1 13.5t2 17.5q34 27 153.5 148t158.5 172q16 20 56 70.5t61 78.5t56 76.5t54 85.5t40 83.5t30.5 92 t9.5 90.5q0 128 -66.5 210.5t-183.5 82.5q-98 0 -203 -66l-16 -12q-38 -40 -47 -164q0 -5 -6 -8q-61 0 -90 4q-7 0 -7 6zM819 10l2 -6v-4q0 6 -2 10z" />
<glyph unicode="3" d="M98 272q0 10 11 15q64 21 71 22q12 4 15 -6q2 -7 8 -30t9.5 -35t11 -34t14.5 -36.5t18 -32t23 -31.5q52 -59 200 -59q128 0 214.5 71.5t86.5 209.5q0 327 -354 327q-45 0 -70 -2q-12 0 -12 4v4q4 31 23 62q4 10 16 14q56 12 106 35.5t93.5 58t69.5 85t26 110.5 q0 100 -67 173t-171 73q-71 0 -143 -37q-32 -26 -41 -82q-2 -11 -8 -94q0 -5 -6 -8q-59 0 -88 4q-7 0 -7 6l-6 121q0 15 9 24q44 46 80.5 79.5t86.5 69t104.5 54t110.5 18.5q130 0 226 -89t96 -230q0 -31 -6.5 -61.5t-17.5 -55t-25.5 -47.5t-30.5 -41.5t-32 -34t-31 -27 t-26 -19t-19 -12.5l-7 -5q-22 -16 11 -21q33 -9 70 -25.5t81 -47t78 -67.5t57 -91t23 -115q0 -132 -77.5 -243.5t-197.5 -175t-251 -70.5q-125 0 -192.5 17.5t-106.5 72.5q-51 69 -56 235z" />
<glyph unicode="4" d="M31 350q-4 30 4 62l10 20l653 940q27 6 99 14q6 0 8.5 -0.5t4 -3t1.5 -8.5v-878q1 -7 7.5 -12t12.5 -5h199l-45 -131h-154q-10 0 -15 -6.5t-5 -13.5v-11q6 -356 6 -376q-58 4 -100 4q-67 0 -96 -4l4 378q0 14 -3.5 21.5t-7.5 8.5l-4 1h-579zM199 492q-7 -11 8 -11h411 q11 0 17 15v651q-3 2 -5.5 1.5t-4.5 -2.5l-2 -1q-399 -616 -424 -653z" />
<glyph unicode="5" d="M72 272q0 10 10 15q62 20 72 22q11 4 14 -6q34 -124 78 -170q110 -123 270 -123q139 0 214 75.5t75 223.5q0 37 -9 67t-32 61t-43.5 52.5t-63.5 61.5q-46 39 -137 93t-159 88l-68 34l-53 31q-3 2 -6.5 6t-9.5 21t3 40l144 482q7 22 57 22h4q273 0 490 -6q7 0 11.5 -9 t2.5 -18l-23 -243q0 -3 -1.5 -4.5t-3.5 -1.5l-1 -1q-29 -4 -94 -4q-6 3 -6 9l-8 100q-4 31 -19 31q-122 4 -182 4h-172q-9 0 -16 -29q-1 -4 -2 -6q-1 -5 -13 -46.5t-24.5 -87t-16.5 -65.5q1 -10 -0.5 -14.5t4 -10.5t6.5 -7.5t8 -4.5l7 -4l79 -40q80 -40 183 -97t150 -92 q7 -4 19.5 -12.5t44.5 -39.5t56 -67.5t44 -99t20 -131.5q0 -121 -74.5 -227t-191 -169t-242.5 -71h-6q-206 1 -306 95q-17 17 -30 36q-48 71 -53 237z" />
<glyph unicode="6" d="M74 520q0 103 27.5 211.5t90 222.5t153.5 214t228.5 186.5t303.5 138.5q8 4 14 -2q15 -15 22 -43q2 -5 -6 -10q-9 -5 -25 -13.5t-63.5 -38t-92.5 -61.5t-103.5 -82.5t-106.5 -102t-92 -119t-68 -134.5q-9 -25 -11.5 -48t7.5 -26q172 96 307 96q102 0 184 -59.5 t126.5 -157.5t44.5 -213q0 -136 -59.5 -251t-172.5 -185t-256 -70q-171 0 -273.5 78.5t-139.5 216.5q-39 96 -39 252zM276 502q0 -119 34.5 -217.5t104.5 -160t163 -61.5q82 0 139.5 48.5t82.5 118.5t25 151q0 67 -17.5 132.5t-51.5 124t-93.5 94.5t-134.5 36 q-127 0 -189.5 -68.5t-62.5 -197.5z" />
<glyph unicode="7" d="M72 1038l45 273q7 30 30 30h72q715 2 750 2q10 0 15.5 -3.5t7 -9t1 -10.5t-0.5 -8l-1 -3l-47 -119q-547 -1218 -557 -1243q-4 -11 -11.5 -15.5t-12.5 -3.5l-5 2q-38 11 -63 27q-11 7 -13 17.5t2 17.5l3 6q543 1146 553 1171q6 15 -6 19q-304 -4 -539 -4 q-55 -6 -80.5 -36.5t-40.5 -109.5q-3 -8 -8 -8h-84q-10 0 -10 8z" />
<glyph unicode="8" d="M104 317q0 157 285 357q5 3 5 7.5t-3 6.5q-125 85 -173 164.5t-48 175.5q0 82 32.5 152.5t92.5 117.5q126 97 280 97q152 0 253.5 -94t101.5 -238q0 -87 -53.5 -165.5t-186.5 -168.5q-9 -6 0 -10q111 -70 166.5 -118.5t84 -106.5t28.5 -138q0 -157 -120 -269t-317 -112 q-86 0 -160.5 19.5t-135.5 59.5t-96.5 107.5t-35.5 155.5zM276 346q0 -118 84 -200.5t218 -82.5q89 0 157 60t68 141q0 112 -72.5 191t-259.5 184q-10 7 -20 0q-93 -78 -134 -145.5t-41 -147.5zM328 1106q0 -104 61.5 -176t210.5 -158q11 -7 21 0q151 126 151 272 q0 121 -68 197t-176 76q-92 0 -146 -57t-54 -154z" />
<glyph unicode="9" d="M90 922q0 136 59 250.5t169 184t249 70.5q141 0 241.5 -65.5t149.5 -181.5q62 -100 62 -299q0 -103 -27.5 -211.5t-90 -222.5t-153.5 -214t-228.5 -186.5t-303.5 -138.5q-8 -4 -14 2q-17 17 -23 43q-2 5 6 10q9 5 25 13.5t63.5 38t92.5 61.5t103.5 82.5t106.5 102t92 119 t68 134.5q24 76 11 80q-149 -84 -291 -84q-161 0 -264 120.5t-103 291.5zM268 1020q0 -94 34.5 -176.5t108.5 -137.5t175 -55q122 0 176 54t55 184q0 55 -8.5 112t-30.5 118.5t-55 109t-86.5 78t-120.5 30.5q-82 0 -140 -48t-83 -118t-25 -151z" />
<glyph unicode=":" horiz-adv-x="415" d="M71 133q3 18 19 41q21 29 70 33q39 4 69 -5.5t43 -25.5q18 -24 15 -94q-4 -49 -25 -68q-18 -17 -37.5 -21.5t-64.5 -4.5q-20 0 -40.5 9t-31.5 23q-9 11 -16 60q-4 35 -1 53zM71 706.5q3 18.5 19 41.5q20 28 70 32q39 4 69 -5t43 -25q18 -24 15 -95q-4 -48 -25 -67 q-18 -17 -38 -22t-64 -5q-20 0 -40.5 9.5t-31.5 23.5q-9 11 -16 59q-4 35 -1 53.5z" />
<glyph unicode=";" horiz-adv-x="395" d="M59 -385q-2 6 15 23q72 83 90 112q29 50 39 129q6 58 -8 88q-15 33 -34 71q-13 27 -14.5 33t3.5 14q1 2 2 3q12 21 46 55.5t60 51.5q17 11 30.5 10t24.5 -17q45 -60 45 -188q0 -31 -17 -89t-38 -97q-44 -81 -106.5 -149.5t-81.5 -72.5q-11 -3 -32 5t-24 18zM140.5 706.5 q3.5 17.5 19.5 41.5q20 28 69 32q39 4 69.5 -5t43.5 -25q17 -22 14 -95q-4 -49 -24 -67q-18 -17 -38.5 -22t-64.5 -5q-45 0 -71 33q-10 12 -17 59q-4 36 -0.5 53.5z" />
<glyph unicode="&#x3c;" d="M74 518q-12 6 0 46t26 46q22 11 112.5 58.5t157 82t168.5 88t178 94.5t153 83t126 71t66 43q6 3 10 -0.5t4 -11.5q0 -18 -7 -71.5t-13 -75.5q-1 -5 -15 -19q-25 -20 -163.5 -92t-329.5 -168t-221 -112q-11 -7 0 -13q26 -16 379.5 -188.5t388.5 -204.5q7 -7 -13.5 -60 t-33.5 -75q-9 -16 -21 -8q-73 55 -429 237t-523 250z" />
<glyph unicode="=" d="M74 668q1 13 13 58t17 54q0 4 19 2q37 -2 897 -2q8 -8 4 -20q-3 -16 -18 -61t-23 -48l-903 -2q-3 0 -5.5 8t-0.5 11zM76 297q2 14 12 61.5t14 57.5q3 6 19 4q27 -4 419 -4h476q4 -1 4 -21q-2 -16 -18 -64.5t-23 -49.5l-897 -2q-6 0 -6 18z" />
<glyph unicode="&#x3e;" d="M127 963q-7 7 13.5 60t33.5 75q9 16 21 8q73 -55 429.5 -237.5t522.5 -250.5q12 -6 -0.5 -46t-26.5 -46q-16 -9 -112 -58.5t-158 -82t-167 -88t-179 -95t-152 -82.5t-126.5 -71.5t-65.5 -42.5q-6 -3 -10.5 0.5t-4.5 11.5q0 18 7.5 71.5t13.5 76.5q1 5 14 18 q25 20 163.5 92t331 169t220.5 112q10 7 0 12q-26 16 -379.5 189t-388.5 205z" />
<glyph unicode="?" horiz-adv-x="774" d="M72 1249q0 90 46 129t169 39q96 0 189 -41.5t156.5 -124t63.5 -184.5q0 -119 -53 -180q-29 -33 -115 -111t-141 -123q-90 -73 12 -170q7 -6 6.5 -15.5t-8.5 -14.5q-37 -19 -55 -31q-16 -5 -45 14q-114 87 -111 185q0 27 19 41q145 101 268 210q33 30 54.5 76.5t21.5 81.5 q-1 69 -49.5 125t-116.5 85.5t-139 33.5q-60 -5 -60 -41q-2 -29 -2 -127q0 -5 -6 -8l-14 -1q-15 -1 -35 -2t-33 -1q-6 0 -6 6q-16 86 -16 149zM262 88q0 56 25 76q25 25 80 29q61 4 84 -25q26 -23 22 -80q-2 -38 -27 -70q-23 -32 -92 -32q-40 0 -71 39q-21 31 -21 63z" />
<glyph unicode="@" horiz-adv-x="1576" d="M45 735q0 146 57 279t155 231t239 156.5t301 58.5q200 0 367.5 -86t263.5 -233t96 -322q0 -248 -95.5 -400.5t-244.5 -152.5q-53 0 -94 7t-63 15.5t-40 26t-24 27t-15 29.5q-3 5 -4 8q-8 16 -13 43t-6 46l-1 19q-33 -17 -85 -54.5t-92 -58t-79 -20.5q-82 0 -132.5 58 t-50.5 139q0 37 9.5 63.5t31.5 44.5t35.5 25t44.5 21q33 12 58.5 20.5t60 16.5t51 12t70.5 14.5t78 15.5v119q0 23 -12.5 49.5t-35.5 52.5t-63 43t-88 17q-5 0 -84 -21q-17 -22 -20 -45q-5 -40 -7 -108q0 -6 -4 -6q-51 0 -71 2q-4 0 -4 6l-3 102q0 17 5 19q1 1 30 23.5 t62.5 46.5t78 44.5t78.5 20.5t74 -10t83.5 -31t72 -63.5t28.5 -98.5v-284q0 -26 1.5 -81t1.5 -87q2 -26 4.5 -40t12 -37.5t24.5 -36t43.5 -22.5t68.5 -10q76 0 130 59.5t79 156t25 220.5q0 176 -85.5 315t-237.5 216.5t-343 77.5q-112 0 -208 -36t-165.5 -99.5t-119 -149.5 t-73.5 -187t-24 -212q0 -304 192.5 -481t506.5 -177q70 0 134.5 10.5t107 25.5t75 30.5t46.5 26.5l15 10q9 6 11 -2q3 -6 -0.5 -39.5t-16.5 -38.5q-1 0 -20.5 -9.5t-43.5 -21t-64 -25.5t-82 -25t-97.5 -18.5t-110.5 -7.5q-134 1 -248 31.5t-193 80t-141.5 116.5t-99.5 136 t-61.5 145.5t-33.5 138.5t-9 120zM606 553q0 -44 24 -65t81 -21q60 0 213 78v184q-45 -12 -94 -26t-91 -26.5t-49 -14.5q-48 -13 -66 -37.5t-18 -71.5z" />
<glyph unicode="A" horiz-adv-x="1476" d="M43 -4q0 82 20 82h99q24 0 52 15t38 40q426 1110 487 1286l17 -2q6 -1 13.5 -1t17 0.5t14.5 0.5q37 0 55 2q34 -120 248 -696.5t225 -591.5q12 -24 35 -39.5t49 -15.5h84q21 0 21 -82q-114 6 -287 6q-53 0 -287 -6q0 82 21 82h82q13 0 26.5 2t28 7.5t20.5 17.5t0 28 q-69 201 -149 434q-4 2 -10 2h-426q-7 0 -9 -2l-157 -432q-9 -25 12.5 -40t65.5 -15h96q8 0 13 -6.5t6.5 -22t2 -24t0.5 -29.5q-114 6 -237 6q-53 0 -287 -6zM567 668q2 -2 8 -2h349q6 0 10 4l-178 512z" />
<glyph unicode="B" horiz-adv-x="1323" d="M109 -6q0 86 20 86h98q54 0 83.5 16.5t29.5 40.5q4 101 4 195v950q0 22 -27 38.5t-53 16.5h-98q-21 0 -21 82q234 -6 287 -6h107q148 4 256 4q70 0 136 -17.5t123.5 -53t92.5 -97.5t35 -143q0 -172 -158 -272q-39 -24 -94 -41q96 -12 168.5 -51t110.5 -90t55.5 -100.5 t17.5 -94.5q0 -46 -10.5 -92.5t-35 -98t-71 -102t-110.5 -90.5q-123 -78 -334 -78q-35 0 -94.5 2t-81.5 2h-170q-32 0 -266 -6zM537 332q0 -47 6 -164q9 -45 66 -69.5t143 -24.5q144 0 231.5 72.5t87.5 215.5q0 151 -82 243.5t-231 99.5h-205q-11 0 -16 -11v-362zM537 811 q4 -8 16 -8h160q131 0 198.5 58t67.5 204q0 128 -92.5 201t-231.5 73q-67 0 -90.5 -12.5t-25.5 -36.5l-2 -8v-471z" />
<glyph unicode="C" horiz-adv-x="1540" d="M168 692q0 142 34.5 259.5t88.5 194.5t128 136t144.5 90.5t146.5 51t125.5 25t90.5 5.5q147 0 469 -37l43 -41q8 -4 8 -20q0 -5 -9 -116.5t-10 -121.5q-2 -8 -12 -8h-78q-7 0 -10 8v5q0 24 -16 65q-24 66 -58 91.5t-102 47.5q-107 37 -250 37q-118 0 -214.5 -49 t-158.5 -133t-95.5 -193t-33.5 -231q0 -28 1.5 -57.5t8.5 -81t18.5 -99t34.5 -106t53.5 -107t78.5 -96t106.5 -80.5t140 -53.5t177.5 -20.5q94 0 180 45t123 131q17 39 31 107q3 10 14 6q10 -2 72 -22q10 -5 10 -15q-33 -200 -49 -272q-6 -14 -29 -19q-270 -61 -448 -61 q-43 0 -96 6.5t-127.5 27t-145 53t-142 90t-124 131.5t-86 184.5t-33.5 242.5z" />
<glyph unicode="D" horiz-adv-x="1667" d="M109 -2q0 88 20 88h98q54 0 83.5 16.5t29.5 40.5q4 53 4 613q0 61 -1 237t-1 289q0 22 -27 38.5t-53 16.5h-96q-21 0 -21 82q78 -2 287 -2q50 0 156 -4q109 4 311 4q139 0 263.5 -53.5t214 -144t142 -215t52.5 -261.5q-3 -160 -59 -297t-157.5 -238.5t-256 -159.5 t-344.5 -58q-35 0 -152.5 5t-169.5 5q-245 0 -323 -2zM535 760q0 -176 0.5 -309.5t1 -199t0.5 -77.5q6 -37 71.5 -58t125 -25.5t126.5 -4.5q117 0 211.5 47t154 127t91 181.5t31.5 215.5q-1 153 -34 270t-89.5 193t-139 124t-176 67.5t-207.5 19.5q-30 0 -77 -2 q-30 -2 -58 -16t-28 -39q0 -113 -2 -283t-2 -231z" />
<glyph unicode="E" horiz-adv-x="1251" d="M33 -6q0 86 20 86h99q54 0 83 16.5t29 40.5q4 53 4 119q0 11 -1 34t-1 36v960q0 22 -27 38.5t-53 16.5h-96q-20 0 -20 82q234 -6 286 -6h688l37 -39q6 -4 6 -20l-10 -215q0 -8 -10 -8l-82 -5q-8 0 -8 9q-1 46 -5.5 75t-18 55t-41.5 38t-72 12h-322q-54 0 -57 -55v-486 q3 -6 14 -6h320q127 0 127 82l8 64q2 16 28 22t52 -10q-17 -111 -17 -203q0 -71 4 -223q-28 -14 -51.5 -6.5t-23.5 30.5v54q0 44 -39.5 68t-87.5 24h-320q-10 0 -14 -8v-512q11 -58 65 -58h371q53 0 89.5 22.5t76.5 102.5q15 30 31 107q3 10 14 6q2 0 72 -23q7 -3 8.5 -5 t1.5 -9q-33 -200 -49 -272q-7 -17 -29 -19q-68 -6 -178 -6h-635q-32 0 -266 -6z" />
<glyph unicode="F" horiz-adv-x="1185" d="M74 -6q0 82 20 82h99q25 0 50 16.5t25 38.5q2 101 2 195v960q0 22 -27 38.5t-53 16.5h-96q-20 0 -20 82q234 -6 286 -6h721l37 -39q6 -4 6 -20l-10 -207q0 -8 -10 -8l-82 -4q-8 0 -8 8q-1 46 -5.5 73.5t-18 52.5t-41.5 35.5t-72 10.5h-351q-58 0 -61 -55l-2 -514 q5 -9 16 -9h338q51 0 89 20.5t38 65.5l8 66q2 16 28 21t52 -11q-16 -104 -16 -201q0 -71 4 -223q-28 -13 -52 -6t-24 29v55q0 42 -39 64t-88 22h-338q-11 0 -16 -10v-307l4 -195q0 -22 28 -38.5t54 -16.5h96q21 0 21 -82q-114 6 -306 6q-52 0 -286 -6z" />
<glyph unicode="G" horiz-adv-x="1554" d="M96 692q0 162 53 301.5t151 242.5t245.5 161.5t328.5 58.5q176 0 449 -39l45 -43q6 -4 6 -20l-20 -236q0 -8 -11 -8h-81q-9 0 -9 12q0 58 -27 102q-28 46 -71.5 72t-103 42.5t-112.5 22t-110 5.5q-178 0 -305 -113q-64 -58 -107.5 -131t-60.5 -142t-22.5 -111t-5.5 -76 q0 -126 20.5 -233.5t67 -200.5t117 -158.5t175.5 -103.5t238 -40q103 0 156 17t61 65q6 41 6 90l2 222q0 55 -69 63l-158 23q-13 1 -16.5 19t-3.5 54q114 -6 299 -6q52 0 286 6v-16v-15v-12t-1 -11t-3 -8t-5.5 -6t-8.5 -3l-74 -17q-55 -13 -55 -71l2 -404q0 -15 -16 -20 l-66 -19q-31 -7 -93 -17.5t-109 -16.5l-46 -7q-71 -10 -184 -10q-43 0 -96 6.5t-127.5 27t-145 53t-142 90t-124 131.5t-86 184.5t-33.5 242.5z" />
<glyph unicode="H" horiz-adv-x="1716" d="M74 -6q0 82 20 82h99q25 0 50 16.5t25 38.5q1 11 2 31q1 18 2 70v49.5v44.5v960q0 22 -26.5 38.5t-52.5 16.5h-99q-20 0 -20 82q234 -6 286 -6q192 0 306 6q0 -82 -21 -82h-96q-26 0 -54.5 -16.5t-29.5 -38.5v-508q4 -8 16 -8h764q12 0 15 10v506q0 22 -27.5 38.5 t-52.5 16.5h-101q-20 0 -20 82q234 -6 287 -6q191 0 305 6q0 -82 -21 -82h-96q-24 0 -52.5 -16.5t-29.5 -38.5v-960l6 -195q0 -22 26 -38.5t50 -16.5h96q21 0 21 -82q-114 6 -305 6q-53 0 -287 -6q0 82 20 82h101q24 0 49.5 16.5t25.5 38.5q1 11 2 31q1 18 3 70q1 31 0 59 v35v340q0 6 -15 6h-764q-11 0 -16 -10v-336q0 -41 1.5 -87t3.5 -74.5t3 -31.5q0 -22 25.5 -39.5t50.5 -17.5h96q21 0 21 -82q-114 6 -306 6q-52 0 -286 -6z" />
<glyph unicode="I" horiz-adv-x="739" d="M74 -6q0 82 20 82h99q25 0 50 17t25 38q1 11 2 31q1 18 2 70v49.5v44.5v960q0 22 -26.5 38.5t-52.5 16.5h-99q-20 0 -20 82q234 -6 286 -6q192 0 306 6q0 -82 -21 -82h-96q-26 0 -54.5 -16.5t-30.5 -38.5v-960l7 -195q0 -21 26.5 -38t51.5 -17h96q21 0 21 -82 q-114 6 -306 6q-52 0 -286 -6z" />
<glyph unicode="J" horiz-adv-x="768" d="M8 -401q3 8 10 8q86 6 218 24q32 5 46 13t21 30q12 28 12 95v690q2 371 2 432v395q0 25 -23.5 40t-49.5 15h-101q-20 0 -20 82q234 -6 287 -6q191 0 305 6q0 -82 -21 -82h-96q-28 0 -54.5 -14t-25.5 -41v-395l2 -432q0 -226 -24 -432q-1 -5 -6 -52t-6.5 -58t-7 -50.5 t-10.5 -58.5t-13.5 -50.5t-19.5 -57t-25 -50.5q-50 -90 -111 -162l-9 -9t-8 -8.5t-7 -6.5t-9.5 -5.5t-11 -2.5t-14.5 -1l-218 2q-4 0 -6 2t-2 4v2q-4 41 -4 134z" />
<glyph unicode="K" horiz-adv-x="1552" d="M74 -6q0 82 20 82h99q25 0 51 16.5t26 38.5q1 11 2 31q1 18 2 70v49.5v44.5v960q0 22 -27.5 38.5t-53.5 16.5h-99q-20 0 -20 82q234 -6 286 -6q192 0 306 6q0 -82 -21 -82h-96q-26 0 -55.5 -16.5t-30.5 -38.5v-960q0 -40 2 -88.5t4 -77.5l2 -29q0 -22 26 -38.5t52 -16.5 h96q21 0 21 -82q-114 6 -306 6q-52 0 -286 -6zM483 684q-4 12 -4.5 22t4.5 19q19 6 50.5 23.5t46.5 29.5q89 82 194 195t165 185l60 73q45 45 45 72q0 38 -100 38h-82q-20 0 -20 82q234 -6 282 -6q115 0 267 8q0 -82 -21 -82h-67q-46 0 -86.5 -28t-90.5 -84l-442 -488 l604 -643q35 -39 117 -39h100q14 0 17.5 -15.5t3.5 -49.5q-78 4 -164 4q-11 0 -106.5 -2t-114.5 -2q-29 0 -43 16q-20 25 -37.5 45.5t-24.5 29t-10 13.5q-447 498 -485 537q-35 37 -58 47z" />
<glyph unicode="L" horiz-adv-x="1255" d="M74 -8q0 82 20 82h135q24 0 50 16.5t26 38.5q6 94 6 188v969q0 21 -28.5 38t-53.5 17h-98q-20 0 -20 84q4 0 116.5 -4t169.5 -4q204 0 305 8q0 -84 -20 -84h-96q-26 0 -55 -16.5t-29 -38.5v-969q0 -40 2 -87t4 -74l2 -27q0 -27 27 -27q172 -14 401 -14q53 0 89.5 22.5 t76.5 102.5q15 31 31 106q3 11 14 7q2 0 72 -23q7 -3 8.5 -5t1.5 -9q-33 -201 -49 -273q-6 -15 -29 -18q-68 -6 -178 -6q-49 0 -436 6h-142q-89 0 -323 -6z" />
<glyph unicode="M" horiz-adv-x="2048" d="M111 -6q0 82 20 82h98q74 0 101 90q10 34 18.5 161.5t13.5 285t8 310.5t5 256l2 103q0 27 -35 41t-66 14h-98q-20 0 -20 82q234 -6 286 -6q20 0 60 1t63 1l35 -88l469 -1020q30 65 79 171t152.5 331t172 374t67.5 148l41 88q24 0 51 -1t47 -1q43 0 277 6q0 -82 -21 -82 h-98q-26 0 -55 -16.5t-29 -38.5q7 -473 14 -762t10 -341l3 -52q0 -23 24.5 -39t48.5 -16h99q20 0 20 -82q-114 6 -305 6q-53 0 -287 -6q0 82 21 82h98q25 0 50.5 16t25.5 39q2 21 2 156q0 269 -10 833l-516 -1114q-3 -6 -13 -6h-18q-3 0 -5 1.5t-3 2.5v2l-545 1176 q-8 -316 -8 -721q0 -189 6 -295q4 -49 41.5 -69.5t77.5 -20.5h96q20 0 20 -82q-114 6 -305 6q-52 0 -286 -6z" />
<glyph unicode="N" horiz-adv-x="1751" d="M74 -6q0 82 20 82h99q36 0 64 23.5t34 66.5q14 86 14 770v346q0 17 -12.5 29.5t-32 18.5t-36.5 8.5t-31 2.5h-99q-20 0 -20 82q234 -6 286 -6h93l919 -1143v545q0 333 -20 467q-6 24 -30.5 39.5t-55.5 15.5h-129q-21 0 -21 82q114 -6 305 -6q22 0 256 6q0 -82 -20 -82 h-68q-32 0 -60.5 -13.5t-33.5 -41.5q-20 -149 -20 -467v-823q-54 4 -74 4l-64 -4q-122 166 -437.5 562t-481.5 599q0 -824 10 -991q3 -45 42.5 -67.5t78.5 -22.5h96q21 0 21 -82q-114 6 -306 6q-52 0 -286 -6z" />
<glyph unicode="O" horiz-adv-x="1642" d="M96 719q0 153 53 287t149.5 232.5t240.5 155t317 56.5q139 0 266.5 -58t220.5 -155.5t148 -231.5t55 -280q0 -173 -53.5 -317.5t-148.5 -242t-226 -151t-284 -53.5q-152 0 -278 44.5t-209.5 118.5t-141.5 173t-83.5 205t-25.5 217zM330 791q0 -186 46.5 -328t127 -225.5 t181 -124.5t218.5 -41q57 0 113 19.5t110.5 65.5t96 114t67 174t25.5 237q0 142 -41 264t-113 206.5t-171 132t-212 48.5q-142 0 -245 -74.5t-153 -195.5t-50 -272z" />
<glyph unicode="P" horiz-adv-x="1228" d="M74 -6q0 82 20 82h99q25 0 50 16.5t25 38.5q6 101 6 195v960q0 26 -25.5 40.5t-55.5 14.5h-99q-20 0 -20 82q234 -6 286 -6h107q148 4 256 4q72 0 133.5 -13.5t106 -36.5t80 -54.5t58.5 -67t38 -75.5t21.5 -78t6.5 -76q0 -37 -7 -77.5t-25.5 -94t-59.5 -106.5t-100 -93 q-136 -92 -299 -92h-195q-16 0 -16 -18v-213q0 -40 2 -88.5t4 -77.5l2 -29q0 -22 25.5 -38.5t50.5 -16.5h96q21 0 21 -82q-114 6 -306 6q-52 0 -286 -6zM465 662q0 -11 14 -11h172q17 0 31 0.5t47.5 7t59.5 18t58.5 36.5t54.5 59t37 89t15 124q0 165 -96 261.5t-272 96.5 q-69 0 -94 -13t-27 -36v-632z" />
<glyph unicode="Q" horiz-adv-x="1693" d="M94 719q0 153 53 287t149.5 232.5t240.5 155t317 56.5q139 0 266.5 -58t220.5 -155.5t148 -231.5t55 -280q0 -279 -131.5 -471.5t-353.5 -259.5q19 -6 40 -14t40 -16t38 -16.5t35 -16.5l31 -15.5t26 -13.5t19.5 -10.5t12.5 -6.5l4 -2q334 -166 542 -166q40 0 109 8.5 t110 28.5q15 8 19 4l22 -26q1 -2 1 -5q0 -5 -5 -10q-29 -25 -127 -75q-114 -58 -290 -58q-260 0 -461 146q-268 197 -439 233q-155 0 -286 60t-219 162.5t-137.5 240.5t-49.5 293zM328 791q0 -186 46.5 -328t127 -225.5t181 -124.5t218.5 -41q57 0 113 19.5t110.5 65.5 t96 114t67 174t25.5 237q0 142 -41 264t-113 206.5t-171 132t-212 48.5q-142 0 -245 -74.5t-153 -195.5t-50 -272z" />
<glyph unicode="R" horiz-adv-x="1437" d="M74 -6q0 82 20 82h99q25 0 50 16.5t25 38.5q6 101 6 195v960q0 22 -27.5 38.5t-53.5 16.5h-99q-20 0 -20 82q234 -6 286 -6h107q148 4 256 4q83 0 152 -21t114.5 -55.5t77 -80t45.5 -93.5t14 -96q0 -232 -200 -354l-76 -47q2 -2 51 -71t150.5 -211.5t199.5 -276.5 q29 -39 107 -39h61q14 0 21.5 -24.5t7.5 -55.5q-78 4 -113 4q-11 0 -94.5 -2t-103.5 -2q-30 0 -41 16q-21 24 -72 88q-219 340 -309 469q-28 38 -66 41h-168q-7 0 -11 -4t-4 -8l-1 -4v-268q0 -40 2 -88.5t4 -77.5l2 -29q0 -22 25.5 -38.5t50.5 -16.5h96q21 0 21 -82 q-114 6 -306 6q-52 0 -286 -6zM465 721q0 -12 16 -12h201q27 0 56.5 8t62.5 29.5t59 54.5t43 89t17 126q0 327 -334 327q-70 0 -94.5 -13.5t-26.5 -37.5v-571z" />
<glyph unicode="S" horiz-adv-x="1056" d="M82 295q0 9 8 12l78 23q9 3 12 -6q6 -19 14 -45.5t12 -41t13.5 -36t22.5 -43.5q3 -5 8.5 -12.5t27.5 -27.5t50 -35t78.5 -27.5t109.5 -12.5q119 0 190.5 72t71.5 190q0 17 -4 35.5t-22 51.5t-47.5 66t-87.5 76t-136 84q-356 192 -356 422q0 194 128.5 303t328.5 109 q16 0 33 -0.5t32 -1.5t29.5 -2t27 -2.5t24 -3t20 -2.5t14.5 -2t9 -2h3l94 -15l37 -39q1 -1 2 -3t3 -8.5t1 -14.5l-12 -230q0 -8 -8 -8h-78q-8 0 -8 8q-1 50 -18 104.5t-33 76.5q-2 3 -6 7.5t-20.5 17t-37.5 22t-58.5 17t-82.5 7.5q-105 0 -174.5 -58t-69.5 -159 q0 -43 3 -70.5t14 -62.5t33 -62.5t61.5 -60t97.5 -65.5q40 -23 99.5 -54t95.5 -50.5t81.5 -48t72.5 -56.5t52 -65.5t36.5 -85.5t11.5 -107q0 -99 -42 -179t-114 -130.5t-163.5 -77.5t-194.5 -27q-142 0 -324 68q-6 8 -6 16q-2 8 -19.5 124t-17.5 128z" />
<glyph unicode="T" horiz-adv-x="1443" d="M72 1120l16 236q0 7 1.5 12t2.5 6l2 2l37 43l219 -2h750l219 2l47 -45q6 -4 6 -20l-12 -236q0 -8 -10 -8h-66q-5 0 -8 8q-24 108 -57.5 154.5t-104.5 46.5h-280q-17 -2 -17 -25v-968q0 -40 2 -89t4 -77l2 -29q0 -27 28.5 -41t57.5 -14h113q20 0 20 -82q-114 6 -325 6 q-96 0 -330 -6q0 82 21 82h125q29 0 57.5 14t28.5 41q6 101 6 195v977q-3 13 -17 16h-274q-66 0 -110.5 -51.5t-63.5 -149.5q-3 -8 -8 -8l-72 2q-10 0 -10 8z" />
<glyph unicode="U" horiz-adv-x="1673" d="M72 1423q234 -6 286 -6q192 0 306 6q0 -82 -21 -82h-96q-29 0 -51.5 -18t-22.5 -53v-692q0 -74 11 -139t41.5 -130t78.5 -111t127 -75t182 -29q74 0 134 15t101.5 40t72.5 63t49 78t29 91.5t14.5 96.5t3.5 100v278q0 236 -2 300.5t-12 113.5q-8 31 -45 51t-89 20h-59 q-20 0 -20 82q114 -6 268 -6q150 0 264 6q0 -82 -20 -82h-60q-39 0 -73 -21t-35 -50q-9 -64 -9 -213v-479q0 -46 -4 -91t-17.5 -107.5t-35.5 -116t-63.5 -108.5t-95.5 -94t-136 -63.5t-182 -24.5q-175 0 -294 35.5t-190.5 112.5t-102 187t-30.5 270v692q0 33 -25.5 52 t-58.5 19h-98q-20 0 -20 82z" />
<glyph unicode="V" horiz-adv-x="1519" d="M0 1421q160 -4 344 -4q176 0 252 4q0 -18 -0.5 -27.5t-2.5 -22t-7 -18t-13 -5.5h-127q-13 0 -23.5 -5.5t-10.5 -15.5q0 -12 395 -1096q420 1072 420 1082q0 33 -68 33h-137q-14 0 -17.5 18t-3.5 55q156 -4 336 -4q113 0 189 4q0 -73 -21 -73h-82q-65 0 -82 -56 q-469 -1132 -528 -1308q-36 4 -65 4q-24 0 -60 -4q-38 127 -256 726.5t-229 612.5q-10 17 -26.5 22t-47.5 5h-106q-15 0 -19 17.5t-4 55.5z" />
<glyph unicode="W" horiz-adv-x="2048" d="M-41 1421q160 -4 344 -4q176 0 252 4q0 -18 -0.5 -27.5t-2.5 -22t-7 -18t-13 -5.5h-126q-11 0 -18.5 -2t-12.5 -8t-2 -17q182 -796 276 -1069l385 1098q30 -7 53 -7q39 0 60 7q27 -98 152 -499.5t188 -582.5q299 1030 299 1043q0 20 -15 28.5t-49 8.5h-139 q-13 0 -16.5 17.5t-3.5 55.5q156 -4 338 -4q112 0 188 4q0 -73 -21 -73h-83q-61 0 -82 -56q-302 -981 -396 -1310q-32 4 -65 4q-34 0 -70 -4q-32 108 -150 476t-186 570q-311 -821 -372 -1046q-36 4 -66 4q-34 0 -70 -4q-21 70 -112.5 401.5t-172.5 625t-89 310.5 q-16 29 -74 29h-98q-15 0 -19 17.5t-4 55.5z" />
<glyph unicode="X" horiz-adv-x="1449" d="M12 -6q0 82 21 82h100q50 0 105 55q168 187 419 567q-313 538 -360 588q-26 30 -51 42.5t-64 12.5h-98q-21 0 -21 82q234 -6 287 -6q191 0 305 6q0 -82 -20 -82h-74q-35 0 -35 -21q0 -13 13 -34q108 -196 245 -432q87 124 160 248t98 184q12 30 0 42.5t-49 12.5h-98 q-21 0 -21 82q234 -6 238 -6q191 0 305 6q0 -21 -0.5 -29.5t-2 -24t-6.5 -22t-13 -6.5l-86 -2q-66 0 -113 -55q-50 -58 -155.5 -204.5t-209.5 -305.5q289 -493 416 -643q20 -28 44 -41.5t63 -13.5h84q20 0 20 -82q-114 6 -323 6q-53 0 -287 -6q0 82 20 82h68q33 0 47.5 13.5 t-0.5 41.5q-129 229 -276 483q-247 -364 -310 -483q-13 -23 -5 -39t36 -16h113q20 0 20 -82q-114 6 -262 6q-53 0 -287 -6z" />
<glyph unicode="Y" horiz-adv-x="1286" d="M-20 1423q234 -6 286 -6q159 0 273 6q0 -82 -21 -82h-80q-22 0 -22 -18q0 -14 10 -37q125 -279 297 -579q78 122 182.5 318.5t126.5 260.5q14 30 -3.5 42.5t-53.5 12.5h-98q-21 0 -21 82q234 -6 260 -6q148 0 262 6q0 -82 -20 -82h-80q-53 0 -100 -55 q-47 -57 -117 -172.5t-161 -276.5t-122 -214q-8 -21 -8 -172q0 -191 6 -261q4 -56 26 -85t56 -29h96q21 0 21 -82q-114 6 -316 6q-67 0 -301 -6q0 82 21 82h104q33 0 60.5 30.5t27.5 83.5q0 41 2 143.5t2 172.5q0 78 -20 119l-29 55q-237 471 -336 606q-35 55 -92 55h-98 q-20 0 -20 82z" />
<glyph unicode="Z" horiz-adv-x="1245" d="M94 1137l27 221q0 7 1.5 12t3.5 6l1 2l37 39h219q-1 0 184.5 0.5t370.5 0.5l186 1l56 -53q-50 -92 -420.5 -653t-392.5 -598q-4 -7 -4.5 -11t3 -5.5t7 -1.5t11 -0.5t11.5 -0.5q23 -2 256 -2h289q38 0 66 9t46.5 22t34 42.5t25.5 57t25 78.5q3 8 8 8l80 -22q10 -3 10 -13 l-31 -221q-9 -59 -53 -59h-211q-38 1 -185 2.5t-345 3t-258 2.5l-56 53q32 48 253.5 371.5t382 563.5t192.5 304q3 5 3 9t-1.5 6t-3.5 2h-553q-87 0 -120 -37.5t-54 -142.5q-3 -9 -9 -9l-82 4q-10 0 -10 9z" />
<glyph unicode="[" horiz-adv-x="534" d="M186 -307v1771q0 3 4 7t7 4h395q10 0 10 -7q0 -88 -16 -90q-132 -4 -279 -4q-8 0 -8 -14q-6 -68 -6 -772q0 -650 6 -785q4 -22 20 -26q31 -10 277 -10q10 0 10 -9q0 -88 -16 -90h-316q-69 6 -84 15q-1 0 -2 0.5t-2 3t0 6.5z" />
<glyph unicode="\" horiz-adv-x="880" d="M82 1427q-4 11 0 13q12 11 72 59q8 6 12 -2q460 -1249 612 -1581q8 -19 -14 -14q-48 10 -88 32l-12 11q-35 65 -150 359.5t-253 657t-179 465.5z" />
<glyph unicode="]" horiz-adv-x="534" d="M184 -242q0 9 11 9q245 0 276 10q17 4 21 26q6 135 6 785q0 704 -6 772q0 5 -3 9.5t-6 4.5q-146 0 -278 4q-17 2 -17 90q0 7 11 7h395q6 0 12 -11v-1771q0 -4 -1.5 -6.5t-2.5 -2.5l-2 -1q-15 -9 -84 -15h-315q-17 2 -17 90z" />
<glyph unicode="^" d="M139 705q34 43 191.5 342.5t197.5 394.5q4 7 9 10q17 8 65 18q9 0 14 -10q52 -119 188.5 -399.5t174.5 -345.5q2 -2 -4 -13q-17 -10 -63.5 -23.5t-51.5 -10.5q-21 19 -84.5 136.5t-135.5 259.5t-75 148q0 1 -3 2t-6.5 0.5t-4.5 -2.5q-226 -465 -262 -505q-5 -6 -17.5 -10 t-30 -5t-32.5 -1t-32.5 0.5t-20.5 0.5q-7 0 -12 4.5t-5 8.5z" />
<glyph unicode="_" d="M2 -356h1083v-117h-1083v117z" />
<glyph unicode="`" horiz-adv-x="610" d="M273 1385q2 6 8 8q3 1 68.5 11.5t80.5 12.5q23 3 27 -8q1 -1 23.5 -68t46 -134.5t26.5 -71.5q5 -12 -2 -19q-2 -2 -14.5 -13.5t-20.5 -17.5q-11 -5 -20 7q-33 30 -217 276q-8 11 -6 17z" />
<glyph unicode="a" horiz-adv-x="937" d="M74 213q0 68 49 113.5t115 68.5q170 61 372 92v150q-1 26 -7.5 50t-23 50t-42 45.5t-67.5 32t-95 12.5q-100 0 -109 -59q-6 -31 -14 -143q0 -6 -6 -9q-58 0 -94 5q-7 0 -7 6l-4 137q0 18 11 27q1 1 42 31t76 53t89 45t96 22q47 0 99 -12.5t106 -39t89 -78t35 -120.5v-342 l4 -200q7 -78 78 -78h39q13 0 13 -9v-43q0 -14 -11 -16q-231 -35 -235 -35l-21 6l-41 45v109q-164 -156 -299 -156q-103 0 -170 66.5t-67 173.5zM238 215q0 -54 31.5 -86.5t76.5 -32.5q57 0 131 30.5t133 74.5v219q-178 -40 -284 -88q-88 -37 -88 -117z" />
<glyph unicode="b" horiz-adv-x="1124" d="M12 1382v45q0 15 8 17q3 0 73.5 11t135.5 20.5t68 9.5q7 0 12 -1.5t7 -3.5l1 -1l41 -41v-660q6 7 17 18t45 39t68 50t82 39.5t92 17.5q368 0 368 -432q0 -140 -56.5 -261.5t-169 -199.5t-259.5 -78q-81 0 -141.5 11.5t-94 23.5t-51.5 12q-8 0 -19 -9t-19 -18l-7 -9 l-49 16q18 165 18 321v1006q0 49 -57 49h-105q-8 0 -8 8zM358 319q0 -78 11 -163q3 -32 64.5 -64.5t125.5 -32.5q140 0 216.5 99.5t76.5 271.5q0 56 -6 106t-22.5 102.5t-43.5 90.5t-72 62t-104 24q-85 0 -163 -53.5t-83 -110.5v-332z" />
<glyph unicode="c" horiz-adv-x="962" d="M94 449q2 219 128 356t356 137q67 0 139 -21.5t112 -52.5q1 -1 3 -2t4 -8.5t0 -17.5l-25 -203q0 -6 -8 -6q-23 -2 -82 -2q-8 0 -8 8q-6 75 -15 123q-8 33 -28 54.5t-48.5 30t-49.5 11t-50 2.5q-60 0 -104 -21t-70.5 -56t-43 -89t-22 -110t-6.5 -129q0 -65 21 -131 t59.5 -122t99.5 -91t134 -35q39 0 63 2t67 16t83 41l47 35q7 -7 10 -9.5t10.5 -10t10.5 -12.5l6 -12q2 -5 2 -9q0 -7 -6 -13l-21 -18q-124 -111 -323 -111q-88 0 -163 29t-126 76.5t-87 110t-52.5 128.5t-16.5 132z" />
<glyph unicode="d" horiz-adv-x="1157" d="M94 401q0 103 35.5 200.5t97.5 172.5t154 120.5t199 45.5q105 0 184 -31v416q0 21 -13.5 36t-43.5 15h-103q-10 0 -10 6v45q0 15 10 17q14 2 142.5 21.5t132.5 19.5q7 0 12 -1.5t7 -3.5l1 -1l41 -41v-1119q0 -39 2.5 -89.5t5.5 -81.5l2 -31q3 -35 56 -35h65q10 0 10 -6 v-47q0 -15 -10 -17q-5 -1 -68 -11.5t-123 -21t-63 -10.5q-7 0 -12 1.5t-7 3.5l-1 1l-41 45v113q-162 -162 -297 -162q-85 0 -155 35.5t-115.5 96t-70 137.5t-24.5 161zM272 473q0 -58 4.5 -104.5t19.5 -99.5t40.5 -88.5t71.5 -59t108 -23.5q66 0 147.5 52t98.5 106 q2 23 2 63v324q-3 45 -8 57q-27 62 -84 105t-142 43q-67 0 -119 -37t-81 -95t-43.5 -120.5t-14.5 -122.5z" />
<glyph unicode="e" horiz-adv-x="972" d="M94 455q1 134 62.5 246t167 176.5t229.5 64.5q173 0 260.5 -110t87.5 -318l-629 -31q2 -178 84 -284.5t234 -106.5q48 0 80 3t84 21.5t98 53.5q37 -33 37 -51q0 -7 -6 -13q-133 -133 -344 -133q-118 0 -206.5 38.5t-139 106.5t-75 152t-24.5 185zM274 557l447 39 q0 62 -19.5 119.5t-67 100t-114.5 42.5q-226 0 -246 -301z" />
<glyph unicode="f" horiz-adv-x="753" d="M82 -6q0 19 0.5 28.5t2 22t6 18t11.5 5.5h99q27 0 30 38l5 334q0 56 2 144q0 29 6 194q-3 39 -31 39l-86 2q-8 0 -8 6v54q0 14 8 16q117 19 121 20q3 82 11.5 139t29.5 117.5t61 109.5t101 91q165 111 247 113q40 0 77.5 -20t55.5 -56q1 -1 1.5 -3t1.5 -8v-6v-6l-29 -190 q0 -6 -8 -6h-66q-8 0 -8 8l-6 70q-6 49 -35 66.5t-88 17.5q-54 0 -86.5 -27t-54.5 -78q-19 -45 -29.5 -104.5t-12.5 -100.5t-3 -116q4 -11 14 -11h194l-34 -98h-156q-18 0 -18 -29q0 -115 10 -679q3 -41 28 -41h129q21 0 21 -74q-114 6 -272 6q-8 0 -242 -6z" />
<glyph unicode="g" horiz-adv-x="978" d="M51 -266q0 65 35 110q34 44 193 148q-138 57 -140 125q0 15 13 28l163 131q-115 27 -170 112.5t-55 211.5q0 79 34 145.5t88.5 108.5t122 65t136.5 23q87 0 180 -35q73 -24 138 -24q17 0 34 2q15 0 43 10t47 29q8 8 13 2l32 -45l3 -13q-5 -44 -34 -77t-71 -33 q-27 0 -47 5t-28.5 11t-14 9t-8.5 1q-5 -5 0 -14q35 -72 35 -162q0 -86 -52 -164.5t-134 -126t-169 -51.5h-10q-20 -1 -38.5 -7t-36 -25.5t-17.5 -49.5q0 -32 27 -58t88 -30q87 -4 186 -14q65 -6 127 -32t106.5 -74.5t44.5 -106.5q0 -148 -86 -244q-62 -67 -175 -122.5 t-232 -55.5q-143 0 -257 89.5t-114 197.5zM203 -219q0 -59 34 -101.5t88.5 -63.5t106.5 -30.5t103 -9.5q111 0 191.5 53t80.5 140q0 89 -98 138t-267 52q-86 0 -110 -18q-3 -2 -17 -12.5t-19.5 -15t-18.5 -15t-19 -17t-17 -17t-16 -19.5t-11 -19.5t-8.5 -22t-2.5 -22.5z M246 653q0 -303 239 -303q48 0 80 16.5t47 48t20 62t5 72.5q0 316 -229 319q-47 0 -81 -20.5t-50.5 -54.5t-23.5 -68.5t-7 -71.5z" />
<glyph unicode="h" horiz-adv-x="1269" d="M76 -6q0 19 0.5 28.5t2 22t6 18t11.5 5.5h99q3 0 8 0.5t13.5 10t8.5 27.5q8 111 8 205v1006q0 21 -13.5 36t-43.5 15h-82q-10 0 -10 6v53q0 7 10 9l254 43h3q3 1 7 -1q6 -2 8 -6l3 -2l41 -40v-658q1 1 19.5 18.5t47.5 41t66.5 47.5t87 40.5t98.5 16.5q67 0 135 -29.5 t118 -92.5t50 -144v-359q0 -40 2 -91.5t4 -82.5l2 -31q3 -38 31 -38h96q21 0 21 -74q-114 6 -250 6q-8 0 -242 -6q0 74 21 74h100q26 0 29 38q10 111 10 205v275q0 27 -1 44t-5 42.5t-11 42t-21.5 35.5t-34.5 30t-51 19t-70 8q-89 0 -168 -53.5t-84 -110.5v-332 q0 -40 2.5 -91t5.5 -82l2 -32q0 -18 7 -27.5t15 -10.5h7h96q7 0 11.5 -5.5t6 -18.5t2 -22t0.5 -28q-150 6 -250 6z" />
<glyph unicode="i" horiz-adv-x="641" d="M76 -6q0 19 0.5 28.5t2 22t6 18t11.5 5.5h99q3 0 8 0.5t13.5 10t8.5 27.5q8 111 8 205v465q0 49 -57 49h-82q-10 0 -10 9v45q0 14 10 16l66 11q66 12 125.5 22t62.5 10l21 -6l41 -45v-576l6 -205q0 -17 8 -26.5t16 -10.5l9 -1h98q7 0 11.5 -5.5t6 -18.5t2 -22t0.5 -28 q-152 6 -252 6zM219 1247q0 56 25 76q25 25 80 29h14q50 0 70 -25q23 -20 23 -65q0 -7 -1 -15q-2 -37 -27 -69q-24 -33 -92 -33q-40 0 -71 39q-21 32 -21 63z" />
<glyph unicode="j" horiz-adv-x="598" d="M20 -444q3 6 9 6q144 10 164 14q19 3 28 10t17 23q16 50 16 92v1075q0 49 -57 49h-82q-11 0 -11 9v45q0 14 11 16l66 11q66 12 125.5 22t62.5 10q7 0 12 -1.5t7 -2.5l1 -2l41 -45v-541q0 -211 -22 -391q-2 -17 -6.5 -60t-7 -60.5t-9 -55.5t-13.5 -59t-20 -56t-29.5 -62 t-40 -61.5t-53.5 -68.5q-2 -2 -8.5 -9t-9 -9t-9 -4.5t-14.5 -2.5l-157 4q-3 0 -4.5 1.5t-1.5 3.5v1q-5 36 -5 99zM240 1247q0 56 22 76q28 25 82 29h14q50 0 70 -25q24 -21 24 -66q0 -7 -1 -14q-2 -37 -27 -69q-24 -33 -92 -33q-41 0 -72 39q-20 30 -20 63z" />
<glyph unicode="k" horiz-adv-x="1140" d="M82 1382v48q0 12 8 14q10 3 140 22t137 19q6 0 11 -2t7 -4l2 -2l41 -39v-928q52 0 107 39q219 239 219 244q15 17 20 28.5t-4 19t-35 7.5h-71q-21 0 -21 74q156 -4 207 -4q112 0 188 4q0 -18 -0.5 -27.5t-2 -22.5t-6 -18.5t-11.5 -5.5h-66q-41 0 -96 -55l-213 -240 q-16 -16 -6 -37l356 -416q30 -41 74 -41h53q14 0 17.5 -15.5t3.5 -49.5q-78 4 -142 4q-12 0 -55.5 -2t-62.5 -2q-29 0 -43 16q-16 19 -30.5 37t-21 26t-12 15t-8.5 12l-201 248q-70 76 -137 78v-115q0 -40 2 -91t4 -82l2 -32q3 -38 31 -38h96q21 0 21 -74q-114 6 -250 6 q-8 0 -242 -6q0 74 21 74h100q26 0 29 38q10 111 10 205v1014q0 21 -13.5 36t-43.5 15h-105q-8 0 -8 6z" />
<glyph unicode="l" horiz-adv-x="645" d="M72 1384v48q0 12 8 14q10 3 139.5 21t136.5 18q6 0 11.5 -2t7.5 -4l2 -2l41 -37v-1123q0 -40 2 -91t4 -82l2 -31q3 -39 31 -39h96q7 0 11.5 -5.5t6 -18.5t2 -22.5t0.5 -27.5q-114 6 -249 6q-8 0 -242 -6q0 19 0.5 28.5t2 22t6 18t11.5 5.5h101q25 0 28 39q11 110 11 204 v1010q0 21 -14 36t-44 15h-104q-8 0 -8 6z" />
<glyph unicode="m" horiz-adv-x="1869" d="M76 -6q0 19 0.5 28.5t2 22t6 18t11.5 5.5h99q24 0 30 38q8 111 8 205v459q0 49 -57 49h-82q-10 0 -10 8v45q0 15 10 17l66 11q66 12 125.5 22t62.5 10l21 -6l41 -45v-109q1 1 19.5 18t47.5 40t66.5 46.5t87 39.5t98.5 16q83 0 167.5 -47.5t117.5 -128.5q176 176 336 176 q67 0 135 -28.5t118 -90.5t50 -143v-359q0 -40 2.5 -91.5t4.5 -82.5l3 -31q3 -38 29 -38l96 6q7 0 11.5 -5.5t6 -18.5t2 -22.5t0.5 -27.5q-33 2 -70.5 2t-90.5 -1t-88 -1q-6 0 -240 -6q0 19 0.5 28.5t2 22t6 18t11.5 5.5h99q24 0 30 38q9 111 9 205v275q0 27 -1 44 t-4.5 42.5t-11 41.5t-21.5 35t-34.5 30t-51 18.5t-69.5 7.5q-88 0 -167.5 -54.5t-84.5 -111.5v-328q0 -40 2 -91.5t4 -82.5l2 -31q3 -38 31 -38h96q21 0 21 -74q-114 6 -250 6q-8 0 -242 -6q0 74 21 74h100q26 0 29 38q10 111 10 205v275q0 38 -2 62t-12.5 57t-30 52 t-57.5 33t-92 15q-89 0 -168 -52.5t-84 -109.5v-332q0 -40 2.5 -91t5.5 -82l2 -32q3 -38 29 -38h96q7 0 11.5 -5.5t6 -18.5t2 -22t0.5 -28q-114 6 -250 6q-5 0 -239 -6z" />
<glyph unicode="n" horiz-adv-x="1249" d="M76 -6q0 19 0.5 28.5t2 22t6 18t11.5 5.5h99q24 0 30 38q8 111 8 205v459q0 22 -13.5 37.5t-43.5 15.5h-82q-10 0 -10 8v46q0 14 10 16l66 11q66 12 125.5 22t62.5 10l21 -6l41 -45v-113q1 1 19.5 18.5t47.5 41t66.5 47.5t87 40.5t98.5 16.5q127 0 215 -71t88 -195v-359 q0 -41 1.5 -89t3.5 -79t3 -34q3 -41 31 -41h96q21 0 21 -74q-114 6 -250 6q-8 0 -242 -6q0 74 21 74h100q26 0 29 38q10 111 10 205v275q0 38 -2 62.5t-12.5 58.5t-30 54t-57.5 34.5t-92 15.5q-88 0 -167.5 -55.5t-84.5 -112.5v-332q0 -40 2.5 -91t5.5 -82l2 -32 q3 -38 29 -38h96q7 0 11.5 -5.5t6 -18.5t2 -22t0.5 -28q-114 6 -250 6q-5 0 -239 -6z" />
<glyph unicode="o" horiz-adv-x="1110" d="M94 436q0 136 59.5 251t172.5 185t256 70q112 0 197 -35.5t136 -99t76 -146t25 -182.5q0 -136 -59.5 -251t-172.5 -185t-256 -70q-112 0 -197 35.5t-136 99t-76 146t-25 182.5zM279 502q0 -119 34 -217.5t104 -160t163 -61.5q53 0 96.5 21t71.5 55.5t47.5 80.5t27.5 94.5 t8 99.5q0 119 -34 217t-104 159.5t-163 61.5q-66 0 -116.5 -31t-78.5 -83t-42 -111.5t-14 -124.5z" />
<glyph unicode="p" horiz-adv-x="1146" d="M35 834v45q0 14 8 16q4 1 73 12t134 21t69 10q6 0 11.5 -1.5t7.5 -2.5l2 -2l41 -45v-111q6 7 17 17.5t44.5 38.5t67.5 49.5t82 39t92 17.5q95 0 178.5 -46t126.5 -128q64 -121 64 -256q0 -140 -53.5 -263t-154.5 -200.5t-227 -77.5q-144 0 -237 86v-299q0 -40 2 -91 t4 -83l2 -31q3 -38 31 -38h96q21 0 21 -74q-101 8 -250 8q-86 0 -242 -8q0 74 21 74h100q26 0 29 38q10 111 10 205v1022q0 21 -14 35t-44 14h-104q-8 0 -8 9zM381 293q4 -75 10 -86q27 -63 82.5 -105.5t138.5 -42.5q65 0 117 33.5t82.5 89t46.5 120t16 132.5q0 58 -4.5 105 t-20 100t-41.5 89t-72.5 59.5t-108.5 23.5q-85 0 -163 -53t-83 -109v-356z" />
<glyph unicode="q" horiz-adv-x="1177" d="M94 397q0 103 35.5 201t98 173.5t155 121t199.5 45.5q80 0 155 -20q102 -25 127 -25q10 0 20.5 7.5t15.5 15.5l5 8l53 -17q-14 -75 -14 -202v-951q0 -42 2 -93t4 -81l2 -31q3 -38 31 -38h98q21 0 21 -74q-156 8 -240 8q-151 0 -252 -8q0 19 0.5 28t2.5 22t7 18.5t13 5.5 h96q26 0 29 38q10 115 10 205v387q-6 -7 -17 -19t-45.5 -42t-69 -52.5t-83 -41.5t-92.5 -19q-162 0 -264.5 119.5t-102.5 310.5zM274 477q0 -48 3.5 -88.5t12 -86.5t26.5 -81.5t44.5 -65t68.5 -45.5t95 -16q73 0 155.5 64t88.5 127v354q-3 28 -9.5 53t-22.5 54t-39 49.5 t-63 34.5t-91 14q-68 0 -121.5 -35.5t-84.5 -91.5t-47 -118t-16 -122z" />
<glyph unicode="r" horiz-adv-x="839" d="M76 -6q0 19 0.5 28.5t2 22t6 18t11.5 5.5h99h4t7.5 2t9 5.5t6.5 11.5t3 19q8 111 8 205v467q0 49 -57 49h-82q-10 0 -10 9v45q0 14 10 16l66 11q66 12 125.5 22t62.5 10l21 -6l41 -45v-133q3 11 27.5 40.5t60.5 62.5t84.5 58t89.5 25q118 0 143 -68l2 -24l-12 -164 q0 -6 -8 -6h-74q-8 0 -8 8q-5 42 -13 80q-6 25 -25.5 34t-55.5 9q-67 -3 -139 -73.5t-72 -129.5v-297q0 -40 2.5 -91t5.5 -82l2 -32q2 -38 67 -38h97q7 0 11.5 -5.5t6 -18.5t2 -22t0.5 -28q-189 6 -289 6z" />
<glyph unicode="s" horiz-adv-x="768" d="M72 266q0 6 6 6q43 11 59 9q7 2 10 -7q18 -92 41 -133.5t64 -64.5q52 -27 117 -27q151 0 151 144q0 52 -42 100t-159 100q-237 106 -237 271q0 133 95.5 204.5t244.5 71.5q11 0 22 -0.5t20 -1t17 -1.5t14 -2t10.5 -1.5t6.5 -1.5h2l94 -14l51 -54q9 -9 5 -26l-31 -203 q0 -6 -8 -6h-60q-8 0 -8 8q-6 84 -17 128.5t-20.5 55t-31.5 22.5q-3 2 -5 3q-55 22 -98 22q-65 0 -107 -39t-42 -84q0 -34 3.5 -53t18 -43t45 -46t82.5 -50q19 -10 52.5 -27.5t54 -28t49.5 -28.5t47 -32t39 -35t32.5 -42t19 -48.5t7.5 -57.5q0 -73 -31.5 -129t-85 -88.5 t-118 -49t-136.5 -16.5q-100 0 -223 43q-16 5 -16 29z" />
<glyph unicode="t" horiz-adv-x="702" d="M61 815v51q0 15 9 17l114 20v195q0 9 9 16l98 105q4 6 20 6q6 0 41 -15q8 -2 8 -14v-278q4 -15 15 -15l241 2q0 -39 -1.5 -55.5t-11 -29.5t-30.5 -13h-194q-15 0 -19 -21v-563q0 -131 99 -131q36 0 73.5 10t57.5 20l20 11q19 -30 19 -51.5t-19 -34.5q-37 -26 -97 -44.5 t-110 -18.5q-117 0 -168 55t-51 184v549q-4 33 -28 33l-86 2q-9 0 -9 8z" />
<glyph unicode="u" horiz-adv-x="1183" d="M61 836v45q0 14 11 16l66 11q66 12 125.5 22t62.5 10q7 0 12 -1.5t6 -2.5l2 -2l41 -45v-576q0 -42 8 -77t28 -69t60 -53.5t97 -19.5q75 0 156 55t87 115v326q0 66 -4 164q-3 42 -15 57.5t-44 15.5h-76q-10 0 -10 9v45q0 14 10 16l66 11q66 12 125.5 22t62.5 10 q7 0 12 -1.5t6 -2.5l2 -2l41 -45v-735q0 -39 10.5 -55.5t47.5 -16.5h39q12 0 12 -8v-43q0 -15 -10 -17q-52 -8 -104.5 -18.5t-79.5 -16.5t-29 -6l-21 7l-41 43v106q-1 0 -18.5 -18.5t-45 -41.5t-63.5 -46.5t-84.5 -39.5t-97.5 -16q-67 0 -135 28.5t-118 90.5t-50 143v361 q0 17 -6 164q-3 42 -14.5 57.5t-43.5 15.5h-75q-11 0 -11 9z" />
<glyph unicode="v" horiz-adv-x="989" d="M-51 922q17 0 101 -3.5t140 -3.5q161 0 250 7q0 -18 -0.5 -27.5t-2 -22.5t-6 -18.5t-11.5 -5.5h-70q-24 0 -38.5 -10t-8.5 -29l221 -590l224 563q13 29 1 47.5t-42 18.5h-62q-13 0 -16.5 18t-3.5 56q29 -1 98.5 -4t107.5 -3q98 0 187 7q0 -74 -21 -74h-55 q-29 0 -59.5 -19t-40.5 -47q-255 -610 -314 -786q-36 4 -53 4t-53 -4q-24 82 -98.5 280.5t-139.5 362t-71 170.5q-20 39 -68 39h-74q-8 0 -13 5t-6.5 18.5t-2 21.5t-0.5 29z" />
<glyph unicode="w" horiz-adv-x="1486" d="M-51 922q14 0 99 -3.5t142 -3.5q161 0 250 7q0 -18 -0.5 -27.5t-2 -22.5t-6 -18.5t-11.5 -5.5h-74q-17 0 -33 -10.5t-12 -28.5q88 -354 178 -602l244 657q29 -4 65 -4q37 0 62 4q86 -409 176 -657l221 581q8 25 -4.5 42.5t-38.5 17.5h-61q-21 0 -21 74q30 -1 99 -4 t106 -3q50 0 189 11q0 -74 -21 -74h-47q-35 0 -64.5 -17t-42.5 -47q-246 -616 -305 -792q-40 4 -53 4q-15 0 -51 -4q-36 119 -207 620q-193 -504 -233 -620q-36 4 -54 4q-17 0 -53 -4q-41 139 -155 474t-124 345q-15 33 -71 33h-66q-13 0 -16.5 18t-3.5 56z" />
<glyph unicode="x" horiz-adv-x="1069" d="M41 -4q0 19 0.5 28t2 22t6 18.5t11.5 5.5h60q56 0 106 53q113 151 230 311l-238 385q-16 29 -76 29h-59q-21 0 -21 74q13 0 99 -3.5t143 -3.5q124 0 213 7q0 -18 -0.5 -27.5t-2 -22.5t-6 -18.5t-11.5 -5.5h-56q-47 0 -28 -29l149 -241q160 216 160 217q14 20 14 33 q0 22 -41 22h-63q-21 0 -21 74q156 -4 207 -4q111 0 187 4q0 -74 -21 -74h-57q-28 0 -57 -15.5t-46 -39.5l-215 -291l250 -398q9 -18 40 -29t54 -11h64q7 0 11.5 -5.5t6 -17.5t2 -21.5t0.5 -27.5q-114 6 -250 6q-43 0 -81 -1t-81 -2.5t-69 -2.5q0 36 3.5 54t17.5 18h51 q30 0 38 11.5t-5 28.5l-158 252l-174 -235q-9 -11 -11 -22.5t8 -21t35 -9.5h60q13 0 16.5 -18t3.5 -56q-156 4 -213 4q-112 0 -188 -4z" />
<glyph unicode="y" horiz-adv-x="1007" d="M-51 922q15 0 98.5 -3.5t140.5 -3.5q163 0 252 7q0 -21 -0.5 -28.5t-2 -21.5t-6.5 -19t-13 -5h-74q-16 0 -29.5 -7.5t-13.5 -19.5q0 -6 2 -10q131 -338 221 -586l226 561q10 25 -2.5 43.5t-38.5 18.5h-66q-13 0 -16.5 18t-3.5 56q29 -1 98.5 -4t107.5 -3q100 0 189 7 q0 -74 -21 -74h-59q-32 0 -57.5 -17.5t-36.5 -44.5l-438 -1095q-30 -75 -53 -114t-81 -105q-2 -2 -8.5 -9t-9 -9t-9 -4.5t-14.5 -2.5l-159 4q-3 0 -4.5 1.5t-1.5 3.5v1q-5 36 -5 97q0 6 9 6q146 10 155 12q20 4 28.5 11t16.5 22l156 383q-38 126 -171.5 468.5t-145.5 354.5 q-19 37 -70 37h-70q-13 0 -16.5 18t-3.5 56z" />
<glyph unicode="z" horiz-adv-x="876" d="M61 684l35 211q3 11 9 17.5t11 7.5h5l160 -5q-1 0 113.5 0.5t229.5 1.5l115 1l37 -37q-58 -105 -215 -367.5t-248 -411.5q-3 -5 -4 -8.5t0.5 -5.5t3.5 -3.5t6 -2t7.5 -1t9 -1t8.5 -0.5q16 -2 92 -2h158q48 6 67.5 40.5t55.5 153.5q3 9 10 9q15 0 72 -15q6 -2 6 -10 l-35 -236q-3 -11 -9 -17t-11 -7h-5l-102 2q-434 2 -545 2l-35 37q122 184 279.5 434t206.5 346q7 17 -2 17h-256q-36 -1 -52 -3.5t-33 -21.5t-27 -47t-29 -92q-3 -9 -11 -6q1 0 -11.5 2t-31 5.5t-28.5 6.5q-7 0 -7 6z" />
<glyph unicode="{" horiz-adv-x="534" d="M41 539q0 16 2 26q0 6 8 6q127 3 175 55.5t48 157.5q0 47 -6 145.5t-6 151.5q0 194 84 291.5t268 112.5q9 0 11 -2q8 -10 8 -49q0 -9 -8 -9q-74 -13 -122 -35.5t-73.5 -58.5t-35 -77.5t-9.5 -102.5q0 -44 8 -171.5t8 -178.5q0 -207 -225 -258q-4 -2 -4 -6q0 -5 4 -7 q225 -54 225 -258q0 -51 -8 -178.5t-8 -171.5q0 -61 9.5 -102.5t35 -77.5t73.5 -58.5t122 -35.5q8 0 8 -8q0 -40 -8 -50q-2 -2 -11 -2q-184 15 -268 112.5t-84 291.5q0 36 6 147.5t6 147.5q0 104 -48 158t-175 57q-8 0 -8 6q-2 10 -2 31z" />
<glyph unicode="|" horiz-adv-x="880" d="M147 -51v1538h121v-1538h-121z" />
<glyph unicode="}" horiz-adv-x="534" d="M98 -360q0 8 8 8q74 13 122 35.5t73.5 58.5t35 77.5t9.5 102.5q0 44 -8 171.5t-8 178.5q0 204 225 258q4 2 4 7q0 4 -4 6q-225 51 -225 258q0 51 8 178.5t8 171.5q0 61 -9.5 102.5t-35 77.5t-73.5 58.5t-122 35.5q-8 0 -8 9q0 39 8 49q2 2 11 2q184 -15 268 -112.5 t84 -291.5q0 -47 -6 -145t-6 -152q0 -105 48 -157.5t175 -55.5q8 0 8 -6q2 -10 2 -26q0 -21 -2 -31q0 -6 -8 -6q-127 -3 -175 -57t-48 -158q0 -47 6 -144.5t6 -150.5q0 -194 -84 -291.5t-268 -112.5q-9 0 -11 2q-8 10 -8 50z" />
<glyph unicode="~" horiz-adv-x="1183" d="M100 423v1q0 39 13 61q8 14 30 34t39 33t21 15q104 88 194 88q61 0 117 -17.5t90 -38.5t78.5 -38.5t85.5 -17.5q66 0 141 45.5t107 77.5q20 16 19 -18q0 -14 -5 -34q-9 -39 -72 -84q-145 -114 -247 -114q-38 0 -97 29t-126.5 58t-125.5 29q-56 0 -120 -33t-117 -81 q-4 -4 -7.5 -5.5t-6 -1t-4.5 2t-3.5 3.5t-2 3.5t-1.5 2.5z" />
<glyph unicode="&#xa1;" horiz-adv-x="587" d="M184 63l70 908q0 11 10 14l66 12q14 3 14 -10l76 -975q1 -17 -7.5 -21.5t-25.5 -2.5q-16 2 -62 11.5t-84 18.5l-38 9q-25 6 -19 36zM207 1313q0 33 20 63q31 39 72 39q68 0 92 -33q25 -32 27 -69q4 -56 -23 -80q-23 -29 -84 -25q-55 4 -80 29q-24 19 -24 76z" />
<glyph unicode="&#xa2;" horiz-adv-x="929" d="M72 653q2 201 137.5 339t353.5 151l15 155q2 10 5 14t9 1l57 -35q6 -4 6 -16q-3 -21 -8.5 -63t-7.5 -56q61 -4 122 -24.5t97 -47.5l2.5 -2.5t4 -8.5t-0.5 -18l-24 -202q0 -6 -9 -6q-35 -3 -81 -3q-9 0 -9 9q-7 77 -14 108q-18 71 -98 90q-11 -103 -36 -372t-40 -387 q45 0 76.5 3t77.5 17.5t86 42.5l47 35q52 -46 32 -66l-20 -18q-121 -108 -311 -115q-9 -75 -27 -147q-5 -24 -25 -37q-10 -6 -30 -14q-13 -6 -19.5 -2t-3.5 16q26 142 31 186q-78 7 -144.5 39t-111.5 79t-77 107t-47 122.5t-15 125.5zM254 657q0 -75 25.5 -148t78.5 -134 t123 -84q29 229 74 756q-150 0 -224.5 -106t-76.5 -284z" />
<glyph unicode="&#xa3;" horiz-adv-x="1179" d="M74 27q0 10 2 18q-1 0 12.5 21.5t43 61t61.5 77.5q36 41 67 146.5t33 176.5v72q0 23 -6 35t-25 12l-127 2q-8 0 -8 6v54q0 14 8 16l164 20q2 20 2 58q2 78 6 128t16.5 111t34 104.5t59 88.5t91.5 82q165 111 246 113q40 0 77.5 -20t55.5 -56l2 -23l-29 -190q0 -6 -8 -6 h-66q-8 0 -8 8l-6 69q-6 49 -35 66.5t-88 17.5q-54 0 -86.5 -26.5t-54.5 -77.5q-28 -65 -36.5 -163.5t-8.5 -280.5q3 -3 8 -3h317l-34 -98h-279q-9 0 -12 -6q-9 -257 -158 -430q-26 -33 -26 -43q0 -7 4.5 -14t13.5 -7q43 -4 432 -4q94 0 138.5 29.5t74.5 97.5q17 39 31 107 q3 10 14 6q20 -4 51 -14q11 -5 11 -15q-44 -253 -60 -325q-6 -14 -28 -19q-19 -4 -38.5 -6.5t-45 -3t-43 -1t-54.5 0t-57 0.5q-407 0 -510 16q-10 2 -27 2q-29 0 -65 -11t-39 -11l-2 4q-2 5 -4 12t-2 15z" />
<glyph unicode="&#xa5;" horiz-adv-x="1306" d="M-31 1374q234 -6 279 -6q150 0 264 6q0 -82 -20 -82h-80q-23 0 -23 -18q0 -14 10 -37q117 -204 289 -473q32 52 107.5 167t124 193.5t61.5 112.5q14 29 -2.5 42t-46.5 13h-98q-21 0 -21 82q234 -6 252 -6q140 0 254 6q0 -82 -21 -82h-79q-55 0 -93 -55q-77 -86 -185 -243 t-189 -298h219q8 -8 4 -20q-2 -8 -15.5 -30.5t-17.5 -22.5h-207q-3 -15 -3.5 -34t0.5 -58t1 -64h232q-1 0 -7.5 -18.5t-13.5 -37.5t-10 -20l-199 -2q0 -112 6 -205q6 -108 74 -108h96q21 0 21 -82q-114 6 -307 6q-75 0 -285 -6q0 82 12 82h105q32 0 59 29.5t27 78.5v205 h-221q-7 0 -7 19q1 7 6.5 21.5t10.5 26t6 11.5h205v156h-224q3 0 27 73q0 4 8 2q18 -2 160 -2h6q-72 134 -171.5 287.5t-176.5 253.5q-18 28 -35.5 41.5t-48.5 13.5h-98q-21 0 -21 82z" />
<glyph unicode="&#xa8;" horiz-adv-x="727" d="M51 1255q0 44 25 64q26 23 80 27q15 3 37.5 -3t35.5 -20q12 -12 18.5 -34t4.5 -34q-2 -37 -29 -71q-12 -16 -37 -24.5t-43 -8.5q-40 0 -71 39q-21 32 -21 65zM465 1255q0 44 22 64q26 23 80 27q15 3 38 -3t36 -20q13 -13 19.5 -35t3.5 -33q-2 -39 -27 -71 q-12 -16 -37 -24.5t-43 -8.5q-41 0 -72 39q-20 26 -20 65z" />
<glyph unicode="&#xa9;" horiz-adv-x="1517" d="M25 715q0 150 58 286.5t156 234.5t234.5 156t286.5 58q209 0 377.5 -98.5t262 -266.5t93.5 -370q0 -154 -58 -291.5t-156 -235.5t-233.5 -155.5t-285.5 -57.5q-206 0 -374.5 95.5t-264.5 265t-96 379.5zM115 715q0 -178 86 -330t234.5 -241t324.5 -89q188 0 336 88 t227.5 238t79.5 334q0 181 -86.5 334t-234.5 241t-322 88q-132 0 -251.5 -52t-205.5 -140.5t-137 -211.5t-51 -259zM322 696q0 84 20.5 153.5t52 115t75 80t85 53t86.5 30t74 14.5t53 3q107 0 156 -6l120 -13l27 -24q6 -3 6 -15q0 -4 -5.5 -68.5t-6.5 -68.5q0 -6 -8 -6h-45 q-6 0 -6 6q-1 14 -11 41q-14 38 -34.5 54t-59.5 28q-61 14 -147 14q-85 0 -149.5 -54t-95 -134.5t-30.5 -171.5q0 -27 1.5 -53.5t9.5 -69t21.5 -78t39.5 -74.5t61 -66t89.5 -44.5t121.5 -17.5q39 0 66 8q85 29 115 96q12 32 18 61q0 5 6 5q6 -1 21 -6t22 -7q6 -4 6 -10 q-20 -119 -28 -162q-8 -8 -17 -10l-145 -27q-61 -6 -121 -6q-25 0 -56 3.5t-75.5 15.5t-85.5 30.5t-83.5 52t-73.5 77t-50.5 108.5t-19.5 143z" />
<glyph unicode="&#xaa;" horiz-adv-x="569" d="M29 1012q0 40 29.5 67.5t68.5 40.5q107 38 223 56v90q0 45 -32.5 79.5t-108.5 34.5q-59 0 -66 -34q-2 -14 -8 -86q0 -3 -4 -7q-39 0 -55 2q-4 1 -4 5l-2 83q0 11 6 15q2 2 18 14t33 24t39.5 25t46.5 21t45 8q28 0 59.5 -7.5t64 -23.5t54 -47t21.5 -72v-206l2 -121 q3 -47 47 -47h22q9 0 9 -4v-27q0 -8 -7 -10q-30 -4 -66 -9.5t-55.5 -8.5t-21.5 -3l-12 4l-25 27v66q-99 -95 -180 -95q-61 0 -101 40.5t-40 105.5zM127 1012q0 -31 19.5 -51.5t46.5 -20.5q34 0 78.5 19t78.5 45v131q-93 -18 -170 -52q-53 -22 -53 -71z" />
<glyph unicode="&#xab;" horiz-adv-x="1280" d="M89.5 451.5q3.5 23.5 19.5 29.5q109 46 294.5 161.5t276.5 184.5q12 9 12 -8q0 -58 -12 -82q-4 -8 -8 -8q-57 -49 -176.5 -134t-192.5 -132q-10 -7 0 -12q74 -47 213.5 -144t192.5 -137q5 -4 -9.5 -36t-25.5 -50q-7 -10 -10 -4q-36 44 -252.5 173.5t-315.5 168.5 q-10 6 -6.5 29.5zM581 451.5q3 23.5 19 29.5q109 46 294.5 161.5t276.5 184.5q6 4 9.5 1.5t3.5 -9.5q0 -56 -13 -82q-4 -8 -8 -8q-57 -49 -176.5 -134.5t-191.5 -131.5q-10 -7 0 -12q73 -47 211.5 -143.5t193.5 -137.5q5 -4 -9.5 -36t-25.5 -50q-7 -10 -10 -4 q-36 44 -252 173.5t-315 168.5q-10 6 -7 29.5z" />
<glyph unicode="&#xac;" d="M111 608q2 14 14 59t16 54q0 4 19 2q37 -2 829 -2h2q12 0 21.5 -9t9.5 -20v-100l-2 -430q-8 -8 -21 -4q-16 3 -60.5 18t-47.5 23l-2 346v18q0 15 -5.5 22t-21.5 7l-745 -2q-3 0 -5.5 7.5t-0.5 10.5z" />
<glyph unicode="&#xad;" horiz-adv-x="688" d="M133 475q1 13 13.5 58.5t17.5 54.5q0 4 18 2q37 -2 420 -2q8 -8 4 -21q-3 -16 -18 -60.5t-23 -47.5l-426 -2q-3 0 -5.5 7.5t-0.5 10.5z" />
<glyph unicode="&#xae;" horiz-adv-x="667" d="M51 1167q0 114 80.5 196.5t194.5 82.5q120 0 198 -79.5t78 -199.5q0 -121 -79.5 -199.5t-196.5 -78.5q-119 0 -197 78.5t-78 199.5zM104 1167q0 -95 66 -163t158 -68q95 0 158 64t63 167q0 96 -64.5 165t-158.5 69q-93 0 -157.5 -67.5t-64.5 -166.5zM199 1030q0 19 4 19 h20q15 0 15 10q2 21 2 39v192q0 4 -6 8.5t-11 4.5h-20q-4 0 -4 16q16 -2 57 -2h74q40 0 61 -21t21 -49q0 -42 -41 -69l-17 -11q35 -46 82 -112q9 -6 21 -6h12q3 0 5.5 -6t2.5 -11h-65q-6 0 -6 2l-17 19q-43 67 -59 94q-12 8 -17 8h-32q-2 -2 -2 -4v-53q0 -8 0.5 -17t0.5 -15 l1 -7q0 -10 14 -10h20q2 0 2 -19q-14 2 -61 2q-41 0 -57 -2zM279 1176l2 -2h38q19 0 35.5 14.5t16.5 48.5q0 66 -68 66q-11 0 -16 -2t-5.5 -3t-2.5 -6v-116z" />
<glyph unicode="&#xb0;" horiz-adv-x="804" d="M117 1151q0 123 85 208t208 85t207.5 -85t84.5 -208t-84.5 -208t-207.5 -85t-208 85t-85 208zM238 1151q0 -85 53 -133.5t119 -48.5t119 48.5t53 133.5t-53 133.5t-119 48.5t-119 -48.5t-53 -133.5z" />
<glyph unicode="&#xb1;" d="M74 33q1 13 13 58t17 54q0 4 19 2q37 -2 219 -2h678q8 -8 4 -20q-3 -16 -18 -61t-23 -48l-903 -2q-3 0 -5.5 8t-0.5 11zM74 682q2 14 14 59t16 54q0 4 19 2q37 -2 229 -2h125l2 395q3 8 48 23t61 18q12 4 20 -4v-211q0 -182 2 -219q37 -2 215 -2h209q8 -8 4 -21 q-3 -16 -18 -60.5t-23 -47.5l-389 -2v-170q0 -59 1 -139.5t1 -90.5q0 -20 -6 -20q-9 -5 -52 -16.5t-56 -12.5q-3 -2 -11 0.5t-8 5.5l2 445l-399 -2q-3 0 -5.5 7.5t-0.5 10.5z" />
<glyph unicode="&#xb4;" horiz-adv-x="409" d="M47 1128q3 4 29 70t51.5 132t26.5 67q5 13 28 16l142 -16q3 0 6 -3t2.5 -9.5t-6.5 -12.5q-200 -267 -222 -287q-8 -11 -20 -6q-8 6 -20.5 17.5t-14.5 13.5q-7 7 -2 18z" />
<glyph unicode="&#xb6;" horiz-adv-x="1232" d="M37 823q0 80 11 148t41 137.5t79 122t129 94t186 61.5q115 22 163 26.5t118 4.5h106q53 0 287 6q0 -82 -20 -82h-99q-30 0 -56 -14.5t-26 -40.5q0 -394 -3.5 -661t-7 -383.5t-3.5 -145.5q0 -310 -201 -567l-9 -9t-8 -8.5t-7.5 -6t-9.5 -5t-10.5 -2t-14.5 -0.5h-217 q-4 0 -6 2t-2 4v2q-4 41 -4 134q3 8 10 8q84 6 217 24q32 5 46.5 13t21.5 30q12 31 16 592q-63 -31 -166 -31q-105 0 -207 43t-180 115.5t-126 175t-48 213.5zM543 924q0 -131 19 -230t43 -149.5t60 -84t55 -41t44 -13.5l2 94v776h-18q-62 0 -110 -53t-71.5 -132.5 t-23.5 -166.5z" />
<glyph unicode="&#xb7;" horiz-adv-x="411" d="M98 809q-5 57 22 92t83 35q64 0 90 -22.5t26 -84.5q0 -58 -31 -85t-77 -27q-43 0 -76.5 27t-36.5 65z" />
<glyph unicode="&#xb8;" horiz-adv-x="1705" d="M633 -434q0 27 4 39q3 9 8 6q74 -39 143 -39q41 0 76 31t35 65q0 28 -4.5 44.5t-21 35.5t-56 30.5t-102.5 16.5q-7 1 -7 8.5t5 14.5q63 86 106 143h82l-59 -90q61 -12 112 -53q50 -42 50 -115q0 -50 -28 -92.5t-69 -67t-80.5 -38t-68.5 -13.5q-72 0 -119 57q-6 6 -6 17z " />
<glyph unicode="&#xba;" horiz-adv-x="569" d="M10 1141q0 126 81 214.5t210 88.5q132 0 197 -76.5t65 -202.5q0 -125 -82 -214t-211 -89q-131 0 -195.5 77t-64.5 202zM121 1180q0 -110 48 -186t132 -76q52 0 88 32.5t50 77.5t14 98q0 111 -49.5 188t-133.5 77q-76 0 -112.5 -63t-36.5 -148z" />
<glyph unicode="&#xbb;" horiz-adv-x="1280" d="M92 170q53 40 192.5 137t213.5 144q10 5 0 12q-73 47 -192.5 132t-176.5 134q-4 0 -8 8q-12 24 -12 82q0 17 12 8q91 -69 276.5 -184.5t294.5 -161.5q16 -6 19.5 -29.5t-6.5 -29.5q-99 -39 -315.5 -168.5t-252.5 -173.5q-3 -6 -10 4q-11 18 -25.5 50t-9.5 36zM584 170 q55 41 193.5 137.5t211.5 143.5q10 5 0 12q-72 46 -191.5 131.5t-176.5 134.5q-5 0 -9 8q-12 24 -12 82q0 17 12 8q90 -69 276.5 -184.5t295.5 -161.5q16 -6 19 -29.5t-7 -29.5q-99 -39 -315 -168.5t-252 -173.5q-4 -7 -11 4q-11 17 -25 49.5t-9 36.5z" />
<glyph unicode="&#xbf;" horiz-adv-x="774" d="M72 336q0 119 53 180q29 33 115 111t141 123q90 73 -12 170q-7 6 -6.5 15.5t8.5 14.5q37 19 55 31q16 5 45 -14q114 -87 111 -185q0 -27 -19 -41q-145 -102 -268 -211q-33 -30 -54.5 -76t-21.5 -81q1 -70 49 -126t116 -85t140 -33q57 3 60 37q4 80 2 131q0 5 6 8l14 1 q15 1 35 2t33 1q6 0 6 -6q16 -86 16 -149q0 -90 -46 -129t-169 -39q-96 0 -189 41.5t-156.5 124t-63.5 184.5zM295 1315q2 37 27 69q24 33 92 33q40 0 71 -39q21 -31 21 -63q0 -56 -25 -76q-25 -25 -80 -29q-61 -4 -84 25q-26 23 -22 80z" />
<glyph unicode="&#xc0;" horiz-adv-x="1476" d="M43 -4q0 82 20 82h99q24 0 52 15t38 40q426 1110 487 1286l17 -2q6 -1 13.5 -1t17 0.5t14.5 0.5q37 0 55 2q34 -120 248 -696.5t225 -591.5q12 -24 35 -39.5t49 -15.5h84q21 0 21 -82q-114 6 -287 6q-53 0 -287 -6q0 82 21 82h82q13 0 26.5 2t28 7.5t20.5 17.5t0 28 q-69 201 -149 434q-4 2 -10 2h-426q-7 0 -9 -2l-157 -432q-9 -25 12.5 -40t65.5 -15h96q8 0 13 -6.5t6.5 -22t2 -24t0.5 -29.5q-114 6 -237 6q-53 0 -287 -6zM567 668q2 -2 8 -2h349q6 0 10 4l-178 512zM594 1772q-16 18 2 24q3 1 69 12t80 13q22 3 27 -9q1 -1 23.5 -68 t46 -134.5t26.5 -71.5q5 -11 -2 -18q-2 -2 -14.5 -13.5t-20.5 -17.5q-12 -5 -20 6q-30 28 -217 277z" />
<glyph unicode="&#xc1;" horiz-adv-x="1476" d="M43 -4q0 82 20 82h99q24 0 52 15t38 40q426 1110 487 1286l17 -2q6 -1 13.5 -1t17 0.5t14.5 0.5q37 0 55 2q34 -120 248 -696.5t225 -591.5q12 -24 35 -39.5t49 -15.5h84q21 0 21 -82q-114 6 -287 6q-53 0 -287 -6q0 82 21 82h82q13 0 26.5 2t28 7.5t20.5 17.5t0 28 q-69 201 -149 434q-4 2 -10 2h-426q-7 0 -9 -2l-157 -432q-9 -25 12.5 -40t65.5 -15h96q8 0 13 -6.5t6.5 -22t2 -24t0.5 -29.5q-114 6 -237 6q-53 0 -287 -6zM567 668q2 -2 8 -2h349q6 0 10 4l-178 512zM715 1534q3 4 29 69.5t51 131.5t26 67q6 14 29 17l141 -17q3 0 6 -3 t2.5 -9t-6.5 -12q-202 -270 -221 -287q-8 -11 -20 -6q-8 6 -20.5 17.5t-14.5 13.5q-7 7 -2 18z" />
<glyph unicode="&#xc2;" horiz-adv-x="1476" d="M43 -4q0 82 20 82h99q24 0 52 15t38 40q426 1110 487 1286l17 -2q6 -1 13.5 -1t17 0.5t14.5 0.5q37 0 55 2q34 -120 248 -696.5t225 -591.5q12 -24 35 -39.5t49 -15.5h84q21 0 21 -82q-114 6 -287 6q-53 0 -287 -6q0 82 21 82h82q13 0 26.5 2t28 7.5t20.5 17.5t0 28 q-69 201 -149 434q-4 2 -10 2h-426q-7 0 -9 -2l-157 -432q-9 -25 12.5 -40t65.5 -15h96q8 0 13 -6.5t6.5 -22t2 -24t0.5 -29.5q-114 6 -237 6q-53 0 -287 -6zM561 1499.5q1 4.5 2 7.5q18 19 91 156t79 156q11 21 21 28q2 1 15 5t26 7.5t20 4.5q4 1 7.5 -1.5t5.5 -4.5l1 -3 q32 -75 90 -182.5t74 -130.5q10 -19 0 -24q-11 -11 -67 -25q-6 -3 -11.5 -3t-7.5 1t-5.5 4t-4.5 4q-31 33 -119 191q-4 9 -7 10.5t-5 -0.5t-6 -8q-7 -15 -54 -91t-51 -83q-17 -31 -71 -31q-12 0 -18 4t-5 8.5zM567 668q2 -2 8 -2h349q6 0 10 4l-178 512z" />
<glyph unicode="&#xc3;" horiz-adv-x="1476" d="M43 -4q0 82 20 82h99q24 0 52 15t38 40q426 1110 487 1286l17 -2q6 -1 13.5 -1t17 0.5t14.5 0.5q37 0 55 2q34 -120 248 -696.5t225 -591.5q12 -24 35 -39.5t49 -15.5h84q21 0 21 -82q-114 6 -287 6q-53 0 -287 -6q0 82 21 82h82q13 0 26.5 2t28 7.5t20.5 17.5t0 28 q-69 201 -149 434q-4 2 -10 2h-426q-7 0 -9 -2l-157 -432q-9 -25 12.5 -40t65.5 -15h96q8 0 13 -6.5t6.5 -22t2 -24t0.5 -29.5q-114 6 -237 6q-53 0 -287 -6zM481 1505q0 38 11 56q25 40 90.5 80t107.5 40q38 0 107 -27.5t110 -27.5q78 0 154 76q16 14 16 -14q-1 -13 -4 -31 q-9 -33 -63 -76q-88 -65 -160 -65q-36 0 -107 25.5t-110 25.5q-25 0 -50 -11.5t-39 -22t-42 -34.5q-15 -13 -21 6zM567 668q2 -2 8 -2h349q6 0 10 4l-178 512z" />
<glyph unicode="&#xc4;" horiz-adv-x="1476" d="M43 -4q0 82 20 82h99q24 0 52 15t38 40q426 1110 487 1286l17 -2q6 -1 13.5 -1t17 0.5t14.5 0.5q37 0 55 2q34 -120 248 -696.5t225 -591.5q12 -24 35 -39.5t49 -15.5h84q21 0 21 -82q-114 6 -287 6q-53 0 -287 -6q0 82 21 82h82q13 0 26.5 2t28 7.5t20.5 17.5t0 28 q-69 201 -149 434q-4 2 -10 2h-426q-7 0 -9 -2l-157 -432q-9 -25 12.5 -40t65.5 -15h96q8 0 13 -6.5t6.5 -22t2 -24t0.5 -29.5q-114 6 -237 6q-53 0 -287 -6zM471 1589q0 44 25 64q25 22 79 26q15 3 38.5 -2.5t35.5 -19.5q12 -12 18.5 -34t4.5 -34q-2 -37 -29 -71 q-12 -16 -37 -24.5t-43 -8.5q-40 0 -71 39q-21 32 -21 65zM567 668q2 -2 8 -2h349q6 0 10 4l-178 512zM885 1589q0 44 22 64q25 22 80 26q15 3 38.5 -2.5t35.5 -19.5q13 -13 19 -34.5t3 -33.5q-2 -41 -26 -71q-12 -16 -37 -24.5t-43 -8.5q-41 0 -72 39q-20 26 -20 65z" />
<glyph unicode="&#xc5;" horiz-adv-x="1476" d="M43 -4q0 82 20 82h99q24 0 52 15t38 40q426 1110 487 1286l17 -2q6 -1 13.5 -1t17 0.5t14.5 0.5q37 0 55 2q34 -120 248 -696.5t225 -591.5q12 -24 35 -39.5t49 -15.5h84q21 0 21 -82q-114 6 -287 6q-53 0 -287 -6q0 82 21 82h82q13 0 26.5 2t28 7.5t20.5 17.5t0 28 q-69 201 -149 434q-4 2 -10 2h-426q-7 0 -9 -2l-157 -432q-9 -25 12.5 -40t65.5 -15h96q8 0 13 -6.5t6.5 -22t2 -24t0.5 -29.5q-114 6 -237 6q-53 0 -287 -6zM567 668q2 -2 8 -2h349q6 0 10 4l-178 512zM635 1634q0 72 43.5 115t126.5 43q74 0 117 -43t43 -107 q0 -72 -47 -114.5t-121 -42.5q-24 0 -50 8t-52 24t-43 46.5t-17 70.5zM700 1636q0 -34 31 -54.5t74 -20.5q39 0 67.5 20.5t28.5 52.5q0 82 -104 82q-46 0 -71.5 -22t-25.5 -58z" />
<glyph unicode="&#xc6;" horiz-adv-x="1980" d="M47 -4q0 82 21 82h98q23 0 49.5 14.5t40.5 40.5q516 908 659 1208h-127q-20 0 -20 82q234 -6 348 -6h688l37 -39q6 -4 6 -20l-10 -215q0 -8 -10 -8l-82 -5q-8 0 -8 9q-1 46 -5.5 75t-18.5 55t-42 38t-72 12h-321q-54 0 -57 -55v-486q3 -6 14 -6h319q127 0 127 82l9 64 q2 16 27.5 22t51.5 -10q-16 -104 -16 -203q0 -71 4 -223q-28 -14 -52 -6.5t-24 30.5v54q0 44 -39.5 68t-87.5 24h-319q-10 0 -14 -8v-512q11 -58 65 -58h363q30 0 46.5 2.5t40 13.5t44.5 38t43 71q13 27 30 107q3 10 15 6q9 -2 19 -5t25.5 -8.5t26.5 -9.5q11 -5 11 -14 q-33 -200 -49 -272q-7 -17 -29 -19q-68 -6 -178 -6h-635q-32 0 -266 -6q0 86 20 86h98q54 0 83.5 16.5t29.5 40.5q4 53 4 119q0 11 -1 34t-1 36v329v5t-5 8.5t-15 5.5h-334q-9 0 -17 -8l-280 -533q-14 -29 8 -42t70 -13h84q8 0 13 -6.5t6.5 -22t2 -24t0.5 -29.5 q-114 6 -225 6q-53 0 -287 -6zM719 786q-3 -14 12 -14h283q6 0 9 7t3 15v7v485q0 52 -13 50q-4 0 -7 -5z" />
<glyph unicode="&#xc7;" horiz-adv-x="1540" d="M168 692q0 142 34.5 259.5t88.5 194.5t128 136t144.5 90.5t146.5 51t125.5 25t90.5 5.5q147 0 469 -37l43 -41q8 -4 8 -20q0 -5 -9 -116.5t-10 -121.5q-2 -8 -12 -8h-78q-7 0 -10 8q2 25 -16 70q-24 66 -58 91.5t-102 47.5q-107 37 -250 37q-118 0 -214.5 -49 t-158.5 -133t-95.5 -193t-33.5 -231q0 -28 1.5 -57.5t8.5 -81t18.5 -99t34.5 -106t53.5 -107t78.5 -96t106.5 -80.5t140 -53.5t177.5 -20.5q94 0 180 45t123 131q17 39 31 107q3 10 14 6q10 -2 72 -22q10 -5 10 -15q-33 -200 -49 -272q-6 -14 -29 -19q-270 -61 -448 -61 q-43 0 -96 6.5t-127.5 27t-145 53t-142 90t-124 131.5t-86 184.5t-33.5 242.5zM641 -406q0 27 4 39q3 9 8 7q74 -39 144 -39q41 0 75.5 31t34.5 65q0 28 -4.5 44.5t-21 35.5t-56 30.5t-102.5 16.5q-7 1 -7 8t5 14q63 87 106 144h82l-59 -90q61 -12 113 -54q49 -41 49 -114 q0 -50 -28 -92.5t-69 -67t-80.5 -38t-68.5 -13.5q-72 0 -119 57q-6 6 -6 16z" />
<glyph unicode="&#xc8;" horiz-adv-x="1251" d="M33 -6q0 86 20 86h99q54 0 83 16.5t29 40.5q4 53 4 119q0 11 -1 34t-1 36v960q0 22 -27 38.5t-53 16.5h-96q-20 0 -20 82q234 -6 286 -6h688l37 -39q6 -4 6 -20l-10 -215q0 -8 -10 -8l-82 -5q-8 0 -8 9q-1 46 -5.5 75t-18 55t-41.5 38t-72 12h-322q-54 0 -57 -55v-486 q3 -6 14 -6h320q127 0 127 82l8 64q2 16 28 22t52 -10q-17 -111 -17 -203q0 -71 4 -223q-28 -14 -51.5 -6.5t-23.5 30.5v54q0 44 -39.5 68t-87.5 24h-320q-10 0 -14 -8v-512q11 -58 65 -58h371q53 0 89.5 22.5t76.5 102.5q15 30 31 107q3 10 14 6q2 0 72 -23q7 -3 8.5 -5 t1.5 -9q-33 -200 -49 -272q-7 -17 -29 -19q-68 -6 -178 -6h-635q-32 0 -266 -6zM440 1772q-16 18 2 24q3 1 69.5 12t80.5 13q21 3 26 -9q1 -1 24 -68t46.5 -134.5t26.5 -71.5q5 -11 -2 -18q-2 -2 -14.5 -13.5t-20.5 -17.5q-13 -5 -21 6q-30 28 -217 277z" />
<glyph unicode="&#xc9;" horiz-adv-x="1251" d="M33 -6q0 86 20 86h99q54 0 83 16.5t29 40.5q4 53 4 119q0 11 -1 34t-1 36v960q0 22 -27 38.5t-53 16.5h-96q-20 0 -20 82q234 -6 286 -6h688l37 -39q6 -4 6 -20l-10 -215q0 -8 -10 -8l-82 -5q-8 0 -8 9q-1 46 -5.5 75t-18 55t-41.5 38t-72 12h-322q-54 0 -57 -55v-486 q3 -6 14 -6h320q127 0 127 82l8 64q2 16 28 22t52 -10q-17 -111 -17 -203q0 -71 4 -223q-28 -14 -51.5 -6.5t-23.5 30.5v54q0 44 -39.5 68t-87.5 24h-320q-10 0 -14 -8v-512q11 -58 65 -58h371q53 0 89.5 22.5t76.5 102.5q15 30 31 107q3 10 14 6q2 0 72 -23q7 -3 8.5 -5 t1.5 -9q-33 -200 -49 -272q-7 -17 -29 -19q-68 -6 -178 -6h-635q-32 0 -266 -6zM510 1538q3 4 29 69.5t51 131.5t26 67q6 14 29 17l141 -17q3 0 6 -3t2.5 -9t-6.5 -12q-202 -270 -221 -287q-8 -11 -20 -6q-8 6 -20.5 17.5t-14.5 13.5q-7 7 -2 18z" />
<glyph unicode="&#xca;" horiz-adv-x="1251" d="M33 -6q0 86 20 86h99q54 0 83 16.5t29 40.5q4 53 4 119q0 11 -1 34t-1 36v960q0 22 -27 38.5t-53 16.5h-96q-20 0 -20 82q234 -6 286 -6h688l37 -39q6 -4 6 -20l-10 -215q0 -8 -10 -8l-82 -5q-8 0 -8 9q-1 46 -5.5 75t-18 55t-41.5 38t-72 12h-322q-54 0 -57 -55v-486 q3 -6 14 -6h320q127 0 127 82l8 64q2 16 28 22t52 -10q-17 -111 -17 -203q0 -71 4 -223q-28 -14 -51.5 -6.5t-23.5 30.5v54q0 44 -39.5 68t-87.5 24h-320q-10 0 -14 -8v-512q11 -58 65 -58h371q53 0 89.5 22.5t76.5 102.5q15 30 31 107q3 10 14 6q2 0 72 -23q7 -3 8.5 -5 t1.5 -9q-33 -200 -49 -272q-7 -17 -29 -19q-68 -6 -178 -6h-635q-32 0 -266 -6zM401 1501.5q1 4.5 2 7.5q18 19 91 156t79 156q11 21 21 28q2 1 15 5t26 7.5t20 4.5q4 1 8 -1t5 -5l2 -2q32 -76 90 -184t74 -130q10 -19 0 -24q-11 -11 -68 -25q-6 -3 -11.5 -3t-7.5 1t-5.5 4 t-4.5 4q-31 33 -119 191q-4 9 -7 10.5t-5 -0.5t-6 -8q-7 -15 -54 -92t-50 -82q-17 -31 -72 -31q-12 0 -18 4t-5 8.5z" />
<glyph unicode="&#xcb;" horiz-adv-x="1251" d="M33 -6q0 86 20 86h99q54 0 83 16.5t29 40.5q4 53 4 119q0 11 -1 34t-1 36v960q0 22 -27 38.5t-53 16.5h-96q-20 0 -20 82q234 -6 286 -6h688l37 -39q6 -4 6 -20l-10 -215q0 -8 -10 -8l-82 -5q-8 0 -8 9q-1 46 -5.5 75t-18 55t-41.5 38t-72 12h-322q-54 0 -57 -55v-486 q3 -6 14 -6h320q127 0 127 82l8 64q2 16 28 22t52 -10q-17 -111 -17 -203q0 -71 4 -223q-28 -14 -51.5 -6.5t-23.5 30.5v54q0 44 -39.5 68t-87.5 24h-320q-10 0 -14 -8v-512q11 -58 65 -58h371q53 0 89.5 22.5t76.5 102.5q15 30 31 107q3 10 14 6q2 0 72 -23q7 -3 8.5 -5 t1.5 -9q-33 -200 -49 -272q-7 -17 -29 -19q-68 -6 -178 -6h-635q-32 0 -266 -6zM311 1591q0 44 25 64q25 22 80 26q15 3 37.5 -2.5t35.5 -19.5q12 -12 18.5 -34t4.5 -34q-2 -37 -29 -71q-12 -16 -37 -24.5t-43 -8.5q-40 0 -71 39q-21 32 -21 65zM725 1591q0 43 23 64 q25 22 79 26q15 3 38.5 -2.5t35.5 -19.5q13 -13 19.5 -35t3.5 -33q-2 -39 -27 -71q-12 -16 -37 -24.5t-43 -8.5q-41 0 -72 39q-20 26 -20 65z" />
<glyph unicode="&#xcc;" horiz-adv-x="739" d="M74 -6q0 82 20 82h99q25 0 50 17t25 38q1 11 2 30.5t2 71t0 93.5v960q0 22 -26.5 38.5t-52.5 16.5h-99q-20 0 -20 82q234 -6 286 -6q192 0 306 6q0 -82 -21 -82h-96q-26 0 -54.5 -16.5t-29.5 -38.5v-960l6 -195q0 -21 26.5 -38t51.5 -17h96q21 0 21 -82q-114 6 -306 6 q-52 0 -286 -6zM156 1774q-16 18 2 24q3 1 69 12t80 13q23 3 27 -8q1 -1 23.5 -68.5t46 -135t26.5 -71.5q5 -11 -2 -18q-2 -2 -14.5 -13.5t-20.5 -17.5q-12 -5 -20 6q-30 28 -217 277z" />
<glyph unicode="&#xcd;" horiz-adv-x="739" d="M74 -6q0 82 20 82h99q25 0 50 17t25 38q1 11 2 30.5t2 71t0 93.5v960q0 22 -26.5 38.5t-52.5 16.5h-99q-20 0 -20 82q234 -6 286 -6q192 0 306 6q0 -82 -21 -82h-96q-26 0 -54.5 -16.5t-29.5 -38.5v-960l6 -195q0 -21 26.5 -38t51.5 -17h96q21 0 21 -82q-114 6 -306 6 q-52 0 -286 -6zM311 1538q3 4 29 69.5t51.5 131.5t26.5 67q6 14 28 17l142 -17q3 0 6 -3t2.5 -9t-6.5 -12q-202 -270 -221 -287q-8 -11 -21 -6q-8 6 -20.5 17.5t-14.5 13.5q-7 7 -2 18z" />
<glyph unicode="&#xce;" horiz-adv-x="739" d="M74 -6q0 82 20 82h99q25 0 50 17t25 38q1 11 2 30.5t2 71t0 93.5v960q0 22 -26.5 38.5t-52.5 16.5h-99q-20 0 -20 82q234 -6 286 -6q192 0 306 6q0 -82 -21 -82h-96q-26 0 -54.5 -16.5t-29.5 -38.5v-960l6 -195q0 -21 26.5 -38t51.5 -17h96q21 0 21 -82q-114 6 -306 6 q-52 0 -286 -6zM151 1501q0 4 3 8q18 19 91 156t79 156q11 22 20 28q2 1 15 5t26.5 7.5t20.5 4.5q4 1 7.5 -1t4.5 -5l2 -2q32 -76 90 -184t74 -130q10 -19 0 -24q-11 -11 -68 -25q-6 -3 -11.5 -3t-7.5 1t-5.5 4t-4.5 4q-29 31 -118 191q-4 9 -7.5 10.5t-5.5 -0.5t-6 -8 q-7 -15 -54 -92t-50 -82q-17 -31 -72 -31q-12 0 -17.5 4t-5.5 8z" />
<glyph unicode="&#xcf;" horiz-adv-x="761" d="M74 1591q0 45 24 64q25 22 80 26q15 3 38.5 -2.5t35.5 -19.5q12 -12 18 -33.5t4 -34.5q-2 -38 -28 -71q-12 -16 -37 -24.5t-43 -8.5q-41 0 -72 39q-20 30 -20 65zM88 1419h598h-598zM94 -6q0 82 21 82h98q25 0 50.5 17t25.5 38q1 11 2 30.5t2 71t0 93.5v960 q0 22 -27 38.5t-53 16.5h-98q-21 0 -21 82q234 -6 287 -6q191 0 305 6q0 -82 -20 -82h-97q-26 0 -54.5 -16.5t-29.5 -38.5v-960l7 -195q0 -21 26 -38t51 -17h97q20 0 20 -82q-114 6 -305 6q-53 0 -287 -6zM487 1591q0 43 23 64q25 22 80 26q15 3 38.5 -2.5t35.5 -19.5 q13 -13 19 -34.5t3 -33.5q-2 -39 -27 -71q-12 -16 -36.5 -24.5t-42.5 -8.5q-41 0 -72 39q-21 27 -21 65z" />
<glyph unicode="&#xd1;" horiz-adv-x="1751" d="M74 -6q0 82 20 82h99q36 0 64 23.5t34 66.5q14 86 14 770v346q0 17 -12.5 29.5t-32 18.5t-36.5 8.5t-31 2.5h-99q-20 0 -20 82q234 -6 286 -6h93l919 -1143v545q0 333 -20 467q-6 24 -30.5 39.5t-55.5 15.5h-129q-21 0 -21 82q114 -6 305 -6q22 0 256 6q0 -82 -20 -82 h-68q-32 0 -60.5 -13.5t-33.5 -41.5q-20 -149 -20 -467v-823q-54 4 -74 4l-64 -4q-122 166 -437.5 562t-481.5 599q0 -824 10 -991q3 -45 42.5 -67.5t78.5 -22.5h96q21 0 21 -82q-114 6 -306 6q-52 0 -286 -6zM575 1507q0 38 11 56q25 40 90.5 80t107.5 40q37 0 106.5 -27.5 t110.5 -27.5q78 0 154 76q16 14 16 -14q-1 -13 -4 -31q-9 -33 -63 -76q-88 -65 -160 -65q-36 0 -107 25.5t-110 25.5q-25 0 -50 -11.5t-39 -22t-42 -34.5q-15 -13 -21 6z" />
<glyph unicode="&#xd2;" horiz-adv-x="1642" d="M96 719q0 153 53 287t149.5 232.5t240.5 155t317 56.5q139 0 266.5 -58t220.5 -155.5t148 -231.5t55 -280q0 -173 -53.5 -317.5t-148.5 -242t-226 -151t-284 -53.5q-152 0 -278 44.5t-209.5 118.5t-141.5 173t-83.5 205t-25.5 217zM330 791q0 -186 46.5 -328t127 -225.5 t181 -124.5t218.5 -41q57 0 113 19.5t110.5 65.5t96 114t67 174t25.5 237q0 142 -41 264t-113 206.5t-171 132t-212 48.5q-142 0 -245 -74.5t-153 -195.5t-50 -272zM610 1786q2 6 8 8q3 1 69.5 12t80.5 13q22 3 27 -9q1 -1 23.5 -68t46 -134.5t26.5 -71.5q5 -11 -2 -18 q-2 -2 -14.5 -13.5t-20.5 -17.5q-12 -5 -20 6q-17 16 -100.5 123.5t-117.5 152.5q-8 11 -6 17z" />
<glyph unicode="&#xd3;" horiz-adv-x="1642" d="M96 719q0 153 53 287t149.5 232.5t240.5 155t317 56.5q139 0 266.5 -58t220.5 -155.5t148 -231.5t55 -280q0 -173 -53.5 -317.5t-148.5 -242t-226 -151t-284 -53.5q-152 0 -278 44.5t-209.5 118.5t-141.5 173t-83.5 205t-25.5 217zM330 791q0 -186 46.5 -328t127 -225.5 t181 -124.5t218.5 -41q57 0 113 19.5t110.5 65.5t96 114t67 174t25.5 237q0 142 -41 264t-113 206.5t-171 132t-212 48.5q-142 0 -245 -74.5t-153 -195.5t-50 -272zM743 1538q3 4 29 69.5t51.5 131.5t26.5 67q6 14 29 17l141 -17q3 0 6 -3t2.5 -9t-6.5 -12 q-202 -270 -221 -287q-8 -11 -21 -6q-8 6 -20.5 17.5t-14.5 13.5q-7 7 -2 18z" />
<glyph unicode="&#xd4;" horiz-adv-x="1642" d="M96 719q0 153 53 287t149.5 232.5t240.5 155t317 56.5q139 0 266.5 -58t220.5 -155.5t148 -231.5t55 -280q0 -173 -53.5 -317.5t-148.5 -242t-226 -151t-284 -53.5q-152 0 -278 44.5t-209.5 118.5t-141.5 173t-83.5 205t-25.5 217zM330 791q0 -186 46.5 -328t127 -225.5 t181 -124.5t218.5 -41q57 0 113 19.5t110.5 65.5t96 114t67 174t25.5 237q0 142 -41 264t-113 206.5t-171 132t-212 48.5q-142 0 -245 -74.5t-153 -195.5t-50 -272zM602 1499.5q1 4.5 2 7.5q18 19 91 156t79 156q11 21 21 28q2 1 15 5t26 7.5t20 4.5q4 1 7.5 -1.5t4.5 -4.5 l2 -3q32 -75 90 -182.5t74 -130.5q10 -19 0 -24q-11 -11 -67 -25q-6 -3 -11.5 -3t-7.5 1t-5.5 4t-4.5 4q-31 33 -119 191q-4 9 -7 10.5t-5 -0.5t-6 -8q-7 -15 -54 -91t-51 -83q-17 -31 -71 -31q-12 0 -18 4t-5 8.5z" />
<glyph unicode="&#xd5;" horiz-adv-x="1642" d="M96 719q0 153 53 287t149.5 232.5t240.5 155t317 56.5q139 0 266.5 -58t220.5 -155.5t148 -231.5t55 -280q0 -173 -53.5 -317.5t-148.5 -242t-226 -151t-284 -53.5q-152 0 -278 44.5t-209.5 118.5t-141.5 173t-83.5 205t-25.5 217zM330 791q0 -186 46.5 -328t127 -225.5 t181 -124.5t218.5 -41q57 0 113 19.5t110.5 65.5t96 114t67 174t25.5 237q0 142 -41 264t-113 206.5t-171 132t-212 48.5q-142 0 -245 -74.5t-153 -195.5t-50 -272zM522 1509q0 39 10 56q25 40 91 80.5t108 40.5q37 0 107 -28t110 -28q78 0 154 76q16 14 16 -14 q-1 -13 -4 -31q-9 -33 -63 -76q-88 -65 -160 -65q-37 0 -107 25.5t-110 25.5q-25 0 -50 -11.5t-39 -22t-42 -34.5q-15 -13 -21 6z" />
<glyph unicode="&#xd6;" horiz-adv-x="1642" d="M96 719q0 153 53 287t149.5 232.5t240.5 155t317 56.5q139 0 266.5 -58t220.5 -155.5t148 -231.5t55 -280q0 -173 -53.5 -317.5t-148.5 -242t-226 -151t-284 -53.5q-152 0 -278 44.5t-209.5 118.5t-141.5 173t-83.5 205t-25.5 217zM330 791q0 -186 46.5 -328t127 -225.5 t181 -124.5t218.5 -41q57 0 113 19.5t110.5 65.5t96 114t67 174t25.5 237q0 142 -41 264t-113 206.5t-171 132t-212 48.5q-142 0 -245 -74.5t-153 -195.5t-50 -272zM512 1589q0 44 25 64q25 22 79 26q15 3 38.5 -2.5t35.5 -19.5q12 -12 18.5 -34t4.5 -34q-2 -37 -29 -71 q-12 -16 -37 -24.5t-43 -8.5q-41 0 -72 39q-20 30 -20 65zM926 1589q0 44 22 64q25 22 80 26q15 3 38.5 -2.5t35.5 -19.5q13 -13 19 -34.5t3 -33.5q-2 -41 -26 -71q-12 -16 -37 -24.5t-43 -8.5q-41 0 -72 39q-20 26 -20 65z" />
<glyph unicode="&#xd8;" horiz-adv-x="1767" d="M102 -4q110 97 230 215q-83 103 -124.5 236t-41.5 272q0 153 53 287t149.5 232.5t240.5 155t317 56.5q130 0 248 -49.5t212 -138.5l187 190q7 7 20 2l72 -35q10 -6 -2 -18l-211 -211q77 -96 120.5 -216t43.5 -249q0 -173 -54 -317.5t-149 -242t-226 -151t-284 -53.5 q-317 0 -516 189q-160 -153 -205 -193q-11 -8 -24 -2l-54 25q-12 6 -2 16zM399 791q0 -255 88 -429q343 338 764 762q-72 99 -176.5 153.5t-226.5 55.5q-142 0 -245.5 -74.5t-153.5 -195.5t-50 -272zM530 289q79 -110 193.5 -163.5t249.5 -53.5q57 0 112.5 19.5t110.5 65.5 t96 114t66.5 174t25.5 237q0 201 -81 360q-374 -368 -773 -753z" />
<glyph unicode="&#xd9;" horiz-adv-x="1673" d="M72 1423q234 -6 286 -6q192 0 306 6q0 -82 -21 -82h-96q-29 0 -51.5 -18t-22.5 -53v-692q0 -74 11 -139t41.5 -130t78.5 -111t127 -75t182 -29q74 0 134 15t101.5 40t72.5 63t49 78t29 91.5t14.5 96.5t3.5 100v278q0 236 -2 300.5t-12 113.5q-8 31 -45 51t-89 20h-59 q-20 0 -20 82q114 -6 268 -6q150 0 264 6q0 -82 -20 -82h-60q-39 0 -73 -21t-35 -50q-9 -64 -9 -213v-479q0 -46 -4 -91t-17.5 -107.5t-35.5 -116t-63.5 -108.5t-95.5 -94t-136 -63.5t-182 -24.5q-175 0 -294 35.5t-190.5 112.5t-102 187t-30.5 270v692q0 33 -25.5 52 t-58.5 19h-98q-20 0 -20 82zM653 1772q-16 18 2 24q3 1 69.5 12t80.5 13q21 3 26 -9q1 -1 24 -68t46.5 -134.5t26.5 -71.5q5 -11 -2 -18q-2 -2 -14.5 -13.5t-20.5 -17.5q-13 -5 -21 6q-30 28 -217 277z" />
<glyph unicode="&#xda;" horiz-adv-x="1673" d="M72 1423q234 -6 286 -6q192 0 306 6q0 -82 -21 -82h-96q-29 0 -51.5 -18t-22.5 -53v-692q0 -74 11 -139t41.5 -130t78.5 -111t127 -75t182 -29q74 0 134 15t101.5 40t72.5 63t49 78t29 91.5t14.5 96.5t3.5 100v278q0 236 -2 300.5t-12 113.5q-8 31 -45 51t-89 20h-59 q-20 0 -20 82q114 -6 268 -6q150 0 264 6q0 -82 -20 -82h-60q-39 0 -73 -21t-35 -50q-9 -64 -9 -213v-479q0 -46 -4 -91t-17.5 -107.5t-35.5 -116t-63.5 -108.5t-95.5 -94t-136 -63.5t-182 -24.5q-175 0 -294 35.5t-190.5 112.5t-102 187t-30.5 270v692q0 33 -25.5 52 t-58.5 19h-98q-20 0 -20 82zM813 1538q3 4 29 69.5t51.5 131.5t26.5 67q6 14 28 17l142 -17q3 0 6 -3t2.5 -9t-6.5 -12q-200 -267 -222 -287q-8 -11 -20 -6q-8 6 -20.5 17.5t-14.5 13.5q-7 7 -2 18z" />
<glyph unicode="&#xdb;" horiz-adv-x="1673" d="M72 1423q234 -6 286 -6q192 0 306 6q0 -82 -21 -82h-96q-29 0 -51.5 -18t-22.5 -53v-692q0 -74 11 -139t41.5 -130t78.5 -111t127 -75t182 -29q74 0 134 15t101.5 40t72.5 63t49 78t29 91.5t14.5 96.5t3.5 100v278q0 236 -2 300.5t-12 113.5q-8 31 -45 51t-89 20h-59 q-20 0 -20 82q114 -6 268 -6q150 0 264 6q0 -82 -20 -82h-60q-39 0 -73 -21t-35 -50q-9 -64 -9 -213v-479q0 -46 -4 -91t-17.5 -107.5t-35.5 -116t-63.5 -108.5t-95.5 -94t-136 -63.5t-182 -24.5q-175 0 -294 35.5t-190.5 112.5t-102 187t-30.5 270v692q0 33 -25.5 52 t-58.5 19h-98q-20 0 -20 82zM628 1499q0 4 3 8q18 19 91 156t79 156q11 22 20 28q2 1 15 5t26.5 7.5t20.5 4.5q4 1 7.5 -1.5t5.5 -4.5l1 -3q32 -75 90 -182.5t74 -130.5q10 -19 0 -24q-11 -11 -68 -25q-6 -3 -11 -3t-7.5 1.5t-5.5 4t-4 3.5q-31 33 -119 191q-4 9 -7.5 10.5 t-5.5 -0.5t-6 -8q-7 -15 -54 -92t-50 -82q-17 -31 -72 -31q-12 0 -17.5 4t-5.5 8z" />
<glyph unicode="&#xdc;" horiz-adv-x="1673" d="M72 1423q234 -6 286 -6q192 0 306 6q0 -82 -21 -82h-96q-29 0 -51.5 -18t-22.5 -53v-692q0 -74 11 -139t41.5 -130t78.5 -111t127 -75t182 -29q74 0 134 15t101.5 40t72.5 63t49 78t29 91.5t14.5 96.5t3.5 100v278q0 236 -2 300.5t-12 113.5q-8 31 -45 51t-89 20h-59 q-20 0 -20 82q114 -6 268 -6q150 0 264 6q0 -82 -20 -82h-60q-39 0 -73 -21t-35 -50q-9 -64 -9 -213v-479q0 -46 -4 -91t-17.5 -107.5t-35.5 -116t-63.5 -108.5t-95.5 -94t-136 -63.5t-182 -24.5q-175 0 -294 35.5t-190.5 112.5t-102 187t-30.5 270v692q0 33 -25.5 52 t-58.5 19h-98q-20 0 -20 82zM539 1591q0 45 24 64q25 22 80 26q15 3 38.5 -2.5t35.5 -19.5q12 -12 18 -33.5t4 -34.5q-2 -38 -28 -71q-12 -16 -37 -24.5t-43 -8.5q-41 0 -72 39q-20 30 -20 65zM952 1591q0 43 23 64q25 22 80 26q15 3 37.5 -2.5t35.5 -19.5q13 -13 19.5 -35 t3.5 -33q-2 -39 -27 -71q-12 -16 -37 -24.5t-43 -8.5q-40 0 -71 39q-21 27 -21 65z" />
<glyph unicode="&#xdd;" horiz-adv-x="1286" d="M-20 1423q234 -6 286 -6q159 0 273 6q0 -82 -21 -82h-80q-22 0 -22 -18q0 -14 10 -37q125 -279 297 -579q78 122 182.5 318.5t126.5 260.5q14 30 -3.5 42.5t-53.5 12.5h-98q-21 0 -21 82q234 -6 260 -6q148 0 262 6q0 -82 -20 -82h-80q-53 0 -100 -55 q-47 -57 -117 -172.5t-161 -276.5t-122 -214q-8 -21 -8 -172q0 -191 6 -261q4 -56 26 -85t56 -29h96q21 0 21 -82q-114 6 -316 6q-67 0 -301 -6q0 82 21 82h104q33 0 60.5 30.5t27.5 83.5q0 41 2 143.5t2 172.5q0 78 -20 119l-29 55q-237 471 -336 606q-35 55 -92 55h-98 q-20 0 -20 82zM670 1536q3 4 29 69.5t51 131.5t26 67q6 14 29 17l141 -17q3 0 6 -3t2.5 -9t-6.5 -12q-202 -270 -221 -287q-8 -11 -20 -6q-8 6 -20.5 17.5t-14.5 13.5q-7 7 -2 18z" />
<glyph unicode="&#xdf;" horiz-adv-x="1177" d="M131 -6q0 74 21 74h73q28 0 31 38l4 334q0 56 2 144q0 29 6 194q-3 39 -30 39l-86 2q-9 0 -9 6v54q0 14 9 16l120 20q5 125 28 212.5t81 156.5q17 22 45 47q47 44 135 92q117 62 203 62q48 0 104.5 -29.5t89.5 -73.5q68 -92 68 -198q0 -161 -170 -312q-5 -5 -16.5 -16 t-16 -16t-11 -13.5t-9 -16t-2.5 -15.5q0 -20 12 -37q2 -3 7 -8.5t15 -15t20.5 -19t29 -26t34 -30t41.5 -36.5t46 -41q96 -87 96 -228q0 -95 -52.5 -183.5t-140 -143t-182.5 -54.5q-70 0 -115 31q-18 13 -18 27q-2 12 -0.5 33t3.5 31.5t5 27.5t4 22q1 11 8 12t11 -5 q37 -30 87 -48t97 -18q67 0 109.5 37t42.5 115q0 42 -8.5 78t-23 60.5t-27 40t-26.5 29t-16 15.5q-5 7 -38.5 35.5t-70 59t-67.5 56.5l-31 25q-14 9 -14 29q-5 41 0 75q3 18 14 29q230 207 230 332q0 84 -17 127q-22 53 -46 85t-52.5 45t-48 16t-53.5 3q-142 0 -203 -168 q-15 -49 -22 -125t-8 -141t-1 -205q0 -32 0.5 -74t1 -79t1 -69.5t1 -53t0.5 -21.5l6 -336q3 -38 29 -38h68q7 0 11.5 -5.5t6 -18.5t2 -22t0.5 -28q-114 6 -211 6q-57 0 -130.5 -3t-86.5 -3z" />
<glyph unicode="&#xe0;" horiz-adv-x="937" d="M74 213q0 68 49 113.5t115 68.5q170 61 372 92v150q-1 26 -7.5 50t-23 50t-42 45.5t-67.5 32t-95 12.5q-100 0 -109 -59q-6 -31 -14 -143q0 -6 -6 -9q-58 0 -94 5q-7 0 -7 6l-4 137q0 18 11 27q1 1 42 31t76 53t89 45t96 22q47 0 99 -12.5t106 -39t89 -78t35 -120.5v-342 l4 -200q7 -78 78 -78h39q13 0 13 -9v-43q0 -14 -11 -16q-231 -35 -235 -35l-21 6l-41 45v109q-164 -156 -299 -156q-103 0 -170 66.5t-67 173.5zM238 215q0 -54 31.5 -86.5t76.5 -32.5q57 0 131 30.5t133 74.5v219q-178 -40 -284 -88q-88 -37 -88 -117zM328 1360 q-16 18 2 24q3 1 69 12t80 13q23 3 27 -8q1 -1 23.5 -68.5t46 -135t26.5 -71.5q5 -11 -2 -18q-2 -2 -14.5 -13.5t-20.5 -17.5q-12 -5 -20 6q-30 28 -217 277z" />
<glyph unicode="&#xe1;" horiz-adv-x="937" d="M74 213q0 68 49 113.5t115 68.5q170 61 372 92v150q-1 26 -7.5 50t-23 50t-42 45.5t-67.5 32t-95 12.5q-100 0 -109 -59q-6 -31 -14 -143q0 -6 -6 -9q-58 0 -94 5q-7 0 -7 6l-4 137q0 18 11 27q1 1 42 31t76 53t89 45t96 22q47 0 99 -12.5t106 -39t89 -78t35 -120.5v-342 l4 -200q7 -78 78 -78h39q13 0 13 -9v-43q0 -14 -11 -16q-231 -35 -235 -35l-21 6l-41 45v109q-164 -156 -299 -156q-103 0 -170 66.5t-67 173.5zM238 215q0 -54 31.5 -86.5t76.5 -32.5q57 0 131 30.5t133 74.5v219q-178 -40 -284 -88q-88 -37 -88 -117zM403 1128q3 4 29 70 t51.5 132t26.5 67q5 13 29 16l141 -16q3 0 6 -3t2.5 -9.5t-6.5 -12.5q-202 -270 -221 -287q-8 -11 -21 -6q-8 6 -20 17.5t-14 13.5q-7 7 -3 18z" />
<glyph unicode="&#xe2;" horiz-adv-x="937" d="M74 213q0 68 49 113.5t115 68.5q170 61 372 92v150q-1 26 -7.5 50t-23 50t-42 45.5t-67.5 32t-95 12.5q-100 0 -109 -59q-6 -31 -14 -143q0 -6 -6 -9q-58 0 -94 5q-7 0 -7 6l-4 137q0 18 11 27q1 1 42 31t76 53t89 45t96 22q47 0 99 -12.5t106 -39t89 -78t35 -120.5v-342 l4 -200q7 -78 78 -78h39q13 0 13 -9v-43q0 -14 -11 -16q-231 -35 -235 -35l-21 6l-41 45v109q-164 -156 -299 -156q-103 0 -170 66.5t-67 173.5zM238 215q0 -54 31.5 -86.5t76.5 -32.5q57 0 131 30.5t133 74.5v219q-178 -40 -284 -88q-88 -37 -88 -117zM243 1067q0 4 3 8 q18 19 91 156t79 155q12 24 20 29q2 1 15 5t26.5 7.5t20.5 4.5q4 1 7.5 -1.5t4.5 -4.5l2 -3q32 -75 90 -182.5t74 -130.5q10 -20 0 -25q-9 -9 -68 -24q-6 -3 -11 -3t-7.5 1.5t-5.5 4t-4 3.5q-33 35 -119 190q-9 20 -19 3q-5 -11 -26.5 -47t-46.5 -76.5t-31 -51.5 q-17 -30 -72 -30q-12 0 -17.5 4t-5.5 8z" />
<glyph unicode="&#xe3;" horiz-adv-x="937" d="M74 213q0 68 49 113.5t115 68.5q170 61 372 92v150q-1 26 -7.5 50t-23 50t-42 45.5t-67.5 32t-95 12.5q-100 0 -109 -59q-6 -31 -14 -143q0 -6 -6 -9q-58 0 -94 5q-7 0 -7 6l-4 137q0 18 11 27q1 1 42 31t76 53t89 45t96 22q47 0 99 -12.5t106 -39t89 -78t35 -120.5v-342 l4 -200q7 -78 78 -78h39q13 0 13 -9v-43q0 -14 -11 -16q-231 -35 -235 -35l-21 6l-41 45v109q-164 -156 -299 -156q-103 0 -170 66.5t-67 173.5zM162 1145q0 38 10 55q25 40 91 80.5t108 40.5q38 0 107.5 -27.5t109.5 -27.5q78 0 153 75q17 15 16 -16q0 -13 -3 -29 q-8 -31 -64 -75q-89 -66 -160 -66q-36 0 -107 25.5t-110 25.5q-25 0 -50 -11t-39.5 -22t-41.5 -34q-16 -14 -20 6zM238 215q0 -54 31.5 -86.5t76.5 -32.5q57 0 131 30.5t133 74.5v219q-178 -40 -284 -88q-88 -37 -88 -117z" />
<glyph unicode="&#xe4;" horiz-adv-x="937" d="M74 213q0 68 49 113.5t115 68.5q170 61 372 92v150q-1 26 -7.5 50t-23 50t-42 45.5t-67.5 32t-95 12.5q-100 0 -109 -59q-6 -31 -14 -143q0 -6 -6 -9q-58 0 -94 5q-7 0 -7 6l-4 137q0 18 11 27q1 1 42 31t76 53t89 45t96 22q47 0 99 -12.5t106 -39t89 -78t35 -120.5v-342 l4 -200q7 -78 78 -78h39q13 0 13 -9v-43q0 -14 -11 -16q-231 -35 -235 -35l-21 6l-41 45v109q-164 -156 -299 -156q-103 0 -170 66.5t-67 173.5zM152 1255q0 45 24 64q26 23 80 27q15 3 38 -3t36 -20q12 -12 18 -33.5t4 -34.5q-2 -38 -28 -71q-12 -16 -37 -24.5t-43 -8.5 q-41 0 -72 39q-20 30 -20 65zM238 215q0 -54 31.5 -86.5t76.5 -32.5q57 0 131 30.5t133 74.5v219q-178 -40 -284 -88q-88 -37 -88 -117zM565 1255q0 43 23 64q26 23 80 27q15 3 37.5 -3t35.5 -20q13 -13 19.5 -35t3.5 -33q-2 -39 -27 -71q-12 -16 -37 -24.5t-43 -8.5 q-40 0 -71 39q-21 27 -21 65z" />
<glyph unicode="&#xe5;" horiz-adv-x="937" d="M74 213q0 68 49 113.5t115 68.5q170 61 372 92v150q-1 26 -7.5 50t-23 50t-42 45.5t-67.5 32t-95 12.5q-100 0 -109 -59q-6 -31 -14 -143q0 -6 -6 -9q-58 0 -94 5q-7 0 -7 6l-4 137q0 18 11 27q1 1 42 31t76 53t89 45t96 22q47 0 99 -12.5t106 -39t89 -78t35 -120.5v-342 l4 -200q7 -78 78 -78h39q13 0 13 -9v-43q0 -14 -11 -16q-231 -35 -235 -35l-21 6l-41 45v109q-164 -156 -299 -156q-103 0 -170 66.5t-67 173.5zM238 215q0 -54 31.5 -86.5t76.5 -32.5q57 0 131 30.5t133 74.5v219q-178 -40 -284 -88q-88 -37 -88 -117zM303 1239 q0 72 43.5 115t126.5 43q74 0 117 -43t43 -107q0 -72 -47 -114.5t-121 -42.5q-24 0 -50 8t-52 24t-43 46.5t-17 70.5zM369 1241q0 -34 30.5 -55t73.5 -21q39 0 67.5 21t28.5 53q0 82 -104 82q-46 0 -71 -22t-25 -58z" />
<glyph unicode="&#xe6;" horiz-adv-x="1464" d="M74 213q0 68 49 113.5t115 68.5q170 61 372 92v150q0 33 -11 63.5t-35.5 60.5t-73 48t-115.5 18q-32 0 -76 -14h2q-31 -15 -35 -45q-6 -31 -14 -143q0 -6 -6 -9q-58 0 -94 5q-7 0 -7 6l-4 137q0 20 6 24q3 1 37.5 27t74 53.5t95.5 50.5t101 23q72 0 154 -30t130 -91 q138 121 301 121q172 0 259 -107.5t87 -308.5l-624 -88q11 -160 91.5 -253t223.5 -93q48 0 80 3t84 21.5t98 53.5q41 -36 37 -54q-1 -5 -6 -10q-133 -133 -344 -133q-249 0 -369 164q-13 13 -26 -2q-66 -73 -154 -117.5t-166 -44.5q-103 0 -170 66.5t-67 173.5zM238 215 q0 -54 31.5 -86.5t76.5 -32.5q57 0 131 30.5t133 74.5v213q-175 -32 -284 -82q-88 -37 -88 -117zM760 510l452 80q0 62 -20 121t-68.5 103t-115.5 44q-243 0 -248 -348z" />
<glyph unicode="&#xe7;" horiz-adv-x="962" d="M94 449q2 219 128 356t356 137q67 0 139 -21.5t112 -52.5q1 -1 3 -2t4 -8.5t0 -17.5l-25 -203q0 -6 -8 -6q-23 -2 -82 -2q-8 0 -8 8q-6 75 -15 123q-8 33 -28 54.5t-48.5 30t-49.5 11t-50 2.5q-60 0 -104 -21t-70.5 -56t-43 -89t-22 -110t-6.5 -129q0 -65 21 -131 t59.5 -122t99.5 -91t134 -35q39 0 63 2t67 16t83 41l47 35q7 -7 10 -9.5t10.5 -10t10.5 -12.5t6 -11.5t2 -12t-6 -10.5l-21 -18q-124 -111 -323 -111q-88 0 -163 29t-126 76.5t-87 110t-52.5 128.5t-16.5 132zM297 -414q0 27 4 39q3 9 8 6q74 -39 144 -39q41 0 75.5 31.5 t34.5 65.5q0 28 -4.5 44.5t-21 35.5t-56 30.5t-102.5 16.5q-7 1 -7 8t5 14q63 87 106 144h82l-59 -91q61 -12 112 -53q50 -42 50 -114q0 -50 -28 -92.5t-69 -67t-80.5 -38t-68.5 -13.5q-72 0 -119 57q-6 6 -6 16z" />
<glyph unicode="&#xe8;" horiz-adv-x="972" d="M94 455q1 134 62.5 246t167 176.5t229.5 64.5q173 0 260.5 -110t87.5 -318l-629 -31q2 -178 84 -284.5t234 -106.5q48 0 80 3t84 21.5t98 53.5q41 -36 37 -54q-1 -5 -6 -10q-133 -133 -344 -133q-118 0 -206.5 38.5t-139 106.5t-75 152t-24.5 185zM274 557l447 39 q0 62 -19.5 119.5t-67 100t-114.5 42.5q-226 0 -246 -301zM342 1360q-16 18 2 24q3 1 69.5 12t80.5 13q22 3 26 -8q1 -1 23.5 -68.5t46 -135t26.5 -71.5q5 -11 -2 -18q-2 -2 -14 -13.5t-20 -17.5q-13 -5 -21 6q-30 28 -217 277z" />
<glyph unicode="&#xe9;" horiz-adv-x="972" d="M94 455q1 134 62.5 246t167 176.5t229.5 64.5q173 0 260.5 -110t87.5 -318l-629 -31q2 -178 84 -284.5t234 -106.5q48 0 80 3t84 21.5t98 53.5q41 -36 37 -54q-1 -5 -6 -10q-133 -133 -344 -133q-118 0 -206.5 38.5t-139 106.5t-75 152t-24.5 185zM274 557l447 39 q0 62 -19.5 119.5t-67 100t-114.5 42.5q-226 0 -246 -301zM414 1126q3 4 29 70t51 132t26 67q5 13 29 16l141 -16q3 0 6 -3t2.5 -9.5t-6.5 -12.5q-202 -270 -221 -287q-8 -11 -20 -6q-8 6 -20.5 17.5t-14.5 13.5q-7 7 -2 18z" />
<glyph unicode="&#xea;" horiz-adv-x="972" d="M94 455q1 134 62.5 246t167 176.5t229.5 64.5q173 0 260.5 -110t87.5 -318l-629 -31q2 -178 84 -284.5t234 -106.5q48 0 80 3t84 21.5t98 53.5q41 -36 37 -54q-1 -5 -6 -10q-133 -133 -344 -133q-118 0 -206.5 38.5t-139 106.5t-75 152t-24.5 185zM274 557l447 39 q0 62 -19.5 119.5t-67 100t-114.5 42.5q-226 0 -246 -301zM278 1067q0 4 3 8q18 19 91 156t79 155q12 24 20 29q2 1 15 5t26 7.5t20 4.5q4 1 8 -1.5t6 -4.5l1 -3q32 -75 90 -182.5t74 -130.5q10 -20 0 -25q-9 -9 -68 -24q-6 -3 -11.5 -3t-7.5 1t-5.5 4t-4.5 4 q-30 32 -118 190q-9 20 -19 3q-5 -11 -26.5 -47t-46.5 -76.5t-31 -51.5q-17 -30 -72 -30q-12 0 -17.5 4t-5.5 8z" />
<glyph unicode="&#xeb;" horiz-adv-x="972" d="M94 455q1 134 62.5 246t167 176.5t229.5 64.5q173 0 260.5 -110t87.5 -318l-629 -31q2 -178 84 -284.5t234 -106.5q48 0 80 3t84 21.5t98 53.5q41 -36 37 -54q-1 -5 -6 -10q-133 -133 -344 -133q-118 0 -206.5 38.5t-139 106.5t-75 152t-24.5 185zM221 1255q0 44 25 64 q26 23 80 27q15 3 37.5 -3t35.5 -20q12 -12 18.5 -34t4.5 -34q-2 -37 -29 -71q-12 -16 -37 -24.5t-43 -8.5q-40 0 -71 39q-21 32 -21 65zM274 557l447 39q0 62 -19.5 119.5t-67 100t-114.5 42.5q-226 0 -246 -301zM635 1255q0 44 22 64q26 23 80 27q15 3 38 -3t36 -20 q13 -13 19.5 -35t3.5 -33q-2 -39 -27 -71q-12 -16 -37 -24.5t-43 -8.5q-41 0 -72 39q-20 26 -20 65z" />
<glyph unicode="&#xec;" horiz-adv-x="638" d="M76 -6q0 19 0.5 28.5t2 22t6 18t11.5 5.5h99q3 0 8 0.5t13.5 10t8.5 27.5q8 111 8 205v465q0 49 -57 49h-82q-10 0 -10 9v45q0 14 10 16l66 11q66 12 125.5 22t62.5 10l21 -6l41 -45v-576q0 -40 2.5 -91t5.5 -82l2 -32q0 -17 7 -26.5t15 -10.5l7 -1h96q7 0 11.5 -5.5 t6 -18.5t2 -22t0.5 -28q-150 6 -250 6zM125 1358q-16 18 2 24q3 1 69 12t80 13q23 3 27 -8q1 -1 23.5 -68.5t46 -135t26.5 -71.5q5 -11 -2 -18q-2 -2 -14.5 -13.5t-20.5 -17.5q-12 -5 -20 6q-30 28 -217 277z" />
<glyph unicode="&#xed;" horiz-adv-x="638" d="M76 -6q0 19 0.5 28.5t2 22t6 18t11.5 5.5h99q3 0 8 0.5t13.5 10t8.5 27.5q8 111 8 205v465q0 49 -57 49h-82q-10 0 -10 9v45q0 14 10 16l66 11q66 12 125.5 22t62.5 10l21 -6l41 -45v-576q0 -40 2.5 -91t5.5 -82l2 -32q0 -17 7 -26.5t15 -10.5l7 -1h96q7 0 11.5 -5.5 t6 -18.5t2 -22t0.5 -28q-150 6 -250 6zM193 1128q3 4 29 70t51 132t26 67q5 13 29 16l141 -16q3 0 6 -3t2.5 -9.5t-6.5 -12.5q-202 -270 -221 -287q-8 -11 -21 -6q-8 6 -20 17.5t-14 13.5q-7 7 -2 18z" />
<glyph unicode="&#xee;" horiz-adv-x="638" d="M76 -6q0 19 0.5 28.5t2 22t6 18t11.5 5.5h99q3 0 8 0.5t13.5 10t8.5 27.5q8 111 8 205v465q0 49 -57 49h-82q-10 0 -10 9v45q0 14 10 16l66 11q66 12 125.5 22t62.5 10l21 -6l41 -45v-576q0 -40 2.5 -91t5.5 -82l2 -32q0 -17 7 -26.5t15 -10.5l7 -1h96q7 0 11.5 -5.5 t6 -18.5t2 -22t0.5 -28q-150 6 -250 6zM106 1065q0 4 3 8q18 19 91 156t79 155q12 24 20 29q2 1 15 5t26 7.5t20 4.5q4 1 8 -1.5t6 -4.5l1 -3q32 -75 90 -182.5t74 -130.5q10 -20 0 -25q-9 -9 -68 -24q-6 -3 -11.5 -3t-7.5 1t-5.5 4t-4.5 4q-30 32 -118 190q-4 9 -7.5 10.5 t-5.5 -0.5t-6 -8q-7 -15 -54 -92t-50 -82q-17 -30 -72 -30q-12 0 -17.5 4t-5.5 8z" />
<glyph unicode="&#xef;" horiz-adv-x="763" d="M76 1247q0 45 24 64q25 22 80 26q15 3 38.5 -2.5t35.5 -19.5q12 -12 18 -33.5t4 -34.5q-2 -38 -28 -71q-12 -16 -37 -24.5t-43 -8.5q-41 0 -72 39q-20 30 -20 65zM147 -6q0 74 21 74h98q3 0 8.5 0.5t14 10t8.5 27.5q8 111 8 205v465q0 49 -57 49h-82q-10 0 -10 9v45 q0 14 10 16l66 11q66 12 125.5 22t62.5 10q7 0 12 -1.5t6 -2.5l2 -2l41 -45v-576q0 -40 2.5 -91t5.5 -82l3 -32q0 -17 7 -26.5t14 -10.5l7 -1h96q21 0 21 -74q-150 6 -250 6zM489 1247q0 43 23 64q25 22 80 26q15 3 38.5 -2.5t35.5 -19.5q13 -13 19 -34.5t3 -33.5 q-2 -41 -26 -71q-12 -16 -37 -24.5t-43 -8.5q-41 0 -72 39q-21 27 -21 65z" />
<glyph unicode="&#xf1;" horiz-adv-x="1249" d="M76 -6q0 19 0.5 28.5t2 22t6 18t11.5 5.5h99q24 0 30 38q8 111 8 205v459q0 22 -13.5 37.5t-43.5 15.5h-82q-10 0 -10 8v46q0 14 10 16l66 11q66 12 125.5 22t62.5 10l21 -6l41 -45v-113q1 1 19.5 18.5t47.5 41t66.5 47.5t87 40.5t98.5 16.5q127 0 215 -71t88 -195v-359 q0 -41 1.5 -89t3.5 -79t3 -34q3 -41 31 -41h96q21 0 21 -74q-114 6 -250 6q-8 0 -242 -6q0 74 21 74h100q26 0 29 38q10 111 10 205v275q0 38 -2 62.5t-12.5 58.5t-30 54t-57.5 34.5t-92 15.5q-88 0 -167.5 -55.5t-84.5 -112.5v-332q0 -40 2.5 -91t5.5 -82l2 -32 q3 -38 29 -38h96q7 0 11.5 -5.5t6 -18.5t2 -22t0.5 -28q-114 6 -250 6q-5 0 -239 -6zM342 1141q0 38 10 55q25 40 91 80.5t108 40.5q37 0 107 -27.5t110 -27.5q79 0 154 75q16 14 16 -14q-1 -13 -4 -31q-8 -31 -64 -75q-89 -66 -159 -66q-37 0 -107 25.5t-110 25.5 q-25 0 -50 -11t-40 -22t-42 -34q-16 -14 -20 6z" />
<glyph unicode="&#xf2;" horiz-adv-x="1110" d="M94 436q0 136 59.5 251t172.5 185t256 70q112 0 197 -35.5t136 -99t76 -146t25 -182.5q0 -136 -59.5 -251t-172.5 -185t-256 -70q-112 0 -197 35.5t-136 99t-76 146t-25 182.5zM279 502q0 -119 34 -217.5t104 -160t163 -61.5q53 0 96.5 21t71.5 55.5t47.5 80.5t27.5 94.5 t8 99.5q0 119 -34 217t-104 159.5t-163 61.5q-66 0 -116.5 -31t-78.5 -83t-42 -111.5t-14 -124.5zM412 1362q-16 18 2 24q3 1 69 12t80 13q23 3 27 -8q1 -1 23.5 -68.5t46 -135t26.5 -71.5q5 -11 -2 -18q-2 -2 -14.5 -13.5t-20.5 -17.5q-12 -5 -20 6q-30 28 -217 277z" />
<glyph unicode="&#xf3;" horiz-adv-x="1110" d="M94 436q0 136 59.5 251t172.5 185t256 70q112 0 197 -35.5t136 -99t76 -146t25 -182.5q0 -136 -59.5 -251t-172.5 -185t-256 -70q-112 0 -197 35.5t-136 99t-76 146t-25 182.5zM279 502q0 -119 34 -217.5t104 -160t163 -61.5q53 0 96.5 21t71.5 55.5t47.5 80.5t27.5 94.5 t8 99.5q0 119 -34 217t-104 159.5t-163 61.5q-66 0 -116.5 -31t-78.5 -83t-42 -111.5t-14 -124.5zM442 1128q3 4 29 70t51.5 132t26.5 67q5 13 29 16l141 -16q3 0 6 -3t2.5 -9.5t-6.5 -12.5q-202 -270 -221 -287q-8 -11 -21 -6q-8 6 -20.5 17.5t-14.5 13.5q-7 7 -2 18z" />
<glyph unicode="&#xf4;" horiz-adv-x="1110" d="M94 436q0 136 59.5 251t172.5 185t256 70q112 0 197 -35.5t136 -99t76 -146t25 -182.5q0 -136 -59.5 -251t-172.5 -185t-256 -70q-112 0 -197 35.5t-136 99t-76 146t-25 182.5zM279 502q0 -119 34 -217.5t104 -160t163 -61.5q53 0 96.5 21t71.5 55.5t47.5 80.5t27.5 94.5 t8 99.5q0 119 -34 217t-104 159.5t-163 61.5q-66 0 -116.5 -31t-78.5 -83t-42 -111.5t-14 -124.5zM372 1065q0 4 3 8q18 19 91 156t79 155q12 24 20 29q2 1 15 5t26.5 7.5t20.5 4.5q4 1 7.5 -1.5t5.5 -4.5l1 -3q32 -75 90 -182.5t74 -130.5q10 -20 0 -25q-9 -9 -68 -24 q-6 -3 -11 -3t-7.5 1.5t-5.5 4t-4 3.5q-33 35 -119 190q-4 9 -7.5 10.5t-5.5 -0.5t-6 -8q-7 -15 -54 -92t-50 -82q-17 -30 -72 -30q-12 0 -17.5 4t-5.5 8z" />
<glyph unicode="&#xf5;" horiz-adv-x="1110" d="M94 436q0 136 59.5 251t172.5 185t256 70q112 0 197 -35.5t136 -99t76 -146t25 -182.5q0 -136 -59.5 -251t-172.5 -185t-256 -70q-112 0 -197 35.5t-136 99t-76 146t-25 182.5zM279 502q0 -119 34 -217.5t104 -160t163 -61.5q53 0 96.5 21t71.5 55.5t47.5 80.5t27.5 94.5 t8 99.5q0 119 -34 217t-104 159.5t-163 61.5q-66 0 -116.5 -31t-78.5 -83t-42 -111.5t-14 -124.5zM299 1145q0 38 10 55q25 40 91 80.5t108 40.5q38 0 107 -27.5t110 -27.5q79 0 154 75q16 14 16 -14q-1 -13 -4 -31q-8 -31 -64 -75q-89 -66 -159 -66q-36 0 -107 25.5 t-110 25.5q-25 0 -50 -11t-40 -22t-42 -34q-16 -14 -20 6z" />
<glyph unicode="&#xf6;" horiz-adv-x="1110" d="M94 436q0 136 59.5 251t172.5 185t256 70q112 0 197 -35.5t136 -99t76 -146t25 -182.5q0 -136 -59.5 -251t-172.5 -185t-256 -70q-112 0 -197 35.5t-136 99t-76 146t-25 182.5zM279 502q0 -119 34 -217.5t104 -160t163 -61.5q53 0 96.5 21t71.5 55.5t47.5 80.5t27.5 94.5 t8 99.5q0 119 -34 217t-104 159.5t-163 61.5q-66 0 -116.5 -31t-78.5 -83t-42 -111.5t-14 -124.5zM289 1255q0 45 24 64q26 23 80 27q15 3 38 -3t36 -20q12 -12 18 -33.5t4 -34.5q-2 -38 -28 -71q-12 -16 -37 -24.5t-43 -8.5q-41 0 -72 39q-20 30 -20 65zM702 1255 q0 43 23 64q26 23 80 27q15 3 38 -3t36 -20q13 -13 19 -34.5t3 -33.5q-2 -39 -27 -71q-12 -16 -36.5 -24.5t-42.5 -8.5q-41 0 -72 39q-21 27 -21 65z" />
<glyph unicode="&#xf7;" d="M123 478v3q8 61 18 92q3 7 11 7q9 2 391.5 2.5t453.5 -0.5q11 0 11 -9v-6q0 -21 -6 -59t-11 -39q-11 -3 -425.5 -3.5t-436.5 1.5q-4 0 -5 3.5t-1 7.5zM439 262q3 17 20 41q21 29 69 33q39 4 69.5 -5.5t43.5 -25.5q17 -22 14 -94q-4 -50 -24 -68q-18 -17 -38 -21.5 t-65 -4.5t-71 33q-10 12 -17 59q-4 36 -1 53zM439.5 835.5q3.5 17.5 19.5 41.5q20 28 69 32q39 4 69.5 -5t43.5 -25q17 -22 14 -95q-4 -49 -24 -67q-18 -17 -38.5 -22t-64.5 -5q-45 0 -71 33q-10 12 -17 59q-4 36 -0.5 53.5z" />
<glyph unicode="&#xf8;" horiz-adv-x="1064" d="M25 -6l120 108q-104 121 -104 334q0 136 59 251t172 185t256 70q223 0 338 -141l135 137q7 7 21 2l49 -29q10 -6 -2 -18l-160 -160q54 -105 54 -254q0 -136 -59.5 -251t-172.5 -185t-256 -70q-171 0 -280 82q-25 -24 -62 -56t-43 -38q-11 -8 -24 -2l-39 18q-13 6 -2 17z M225 502q0 -152 58 -271q125 117 446 433q-38 88 -102.5 138t-149.5 50q-66 0 -116.5 -31t-79 -83t-42.5 -111.5t-14 -124.5zM319 172q79 -109 207 -109q66 0 116.5 31t79 83.5t42.5 112t14 124.5q0 88 -22 174q-175 -171 -437 -416z" />
<glyph unicode="&#xf9;" horiz-adv-x="1183" d="M61 836v45q0 14 11 16l66 11q66 12 125.5 22t62.5 10q7 0 12 -1.5t6 -2.5l2 -2l41 -45v-576q0 -42 8 -77t28 -69t60 -53.5t97 -19.5q75 0 156 55t87 115v326q0 66 -4 164q-3 42 -15 57.5t-44 15.5h-76q-10 0 -10 9v45q0 14 10 16l66 11q66 12 125.5 22t62.5 10 q7 0 12 -1.5t6 -2.5l2 -2l41 -45v-735q0 -39 10.5 -55.5t47.5 -16.5h39q12 0 12 -8v-43q0 -15 -10 -17q-52 -8 -104.5 -18.5t-79.5 -16.5t-29 -6l-21 7l-41 43v106q-1 0 -18.5 -18.5t-45 -41.5t-63.5 -46.5t-84.5 -39.5t-97.5 -16q-67 0 -135 28.5t-118 90.5t-50 143v361 q0 17 -6 164q-3 42 -14.5 57.5t-43.5 15.5h-75q-11 0 -11 9zM371 1362q-16 18 2 24q3 1 69 12t80 13q23 3 27 -8q1 -1 23.5 -68.5t46 -135t26.5 -71.5q5 -11 -2 -18q-2 -2 -14.5 -13.5t-20.5 -17.5q-12 -5 -20 6q-30 28 -217 277z" />
<glyph unicode="&#xfa;" horiz-adv-x="1183" d="M61 836v45q0 14 11 16l66 11q66 12 125.5 22t62.5 10q7 0 12 -1.5t6 -2.5l2 -2l41 -45v-576q0 -42 8 -77t28 -69t60 -53.5t97 -19.5q75 0 156 55t87 115v326q0 66 -4 164q-3 42 -15 57.5t-44 15.5h-76q-10 0 -10 9v45q0 14 10 16l66 11q66 12 125.5 22t62.5 10 q7 0 12 -1.5t6 -2.5l2 -2l41 -45v-735q0 -39 10.5 -55.5t47.5 -16.5h39q12 0 12 -8v-43q0 -15 -10 -17q-52 -8 -104.5 -18.5t-79.5 -16.5t-29 -6l-21 7l-41 43v106q-1 0 -18.5 -18.5t-45 -41.5t-63.5 -46.5t-84.5 -39.5t-97.5 -16q-67 0 -135 28.5t-118 90.5t-50 143v361 q0 17 -6 164q-3 42 -14.5 57.5t-43.5 15.5h-75q-11 0 -11 9zM502 1126q3 4 29 70t51 132t26 67q5 13 29 16l141 -16q3 0 6 -3t2.5 -9.5t-6.5 -12.5q-202 -270 -221 -287q-8 -11 -20 -6q-8 6 -20.5 17.5t-14.5 13.5q-7 7 -2 18z" />
<glyph unicode="&#xfb;" horiz-adv-x="1183" d="M61 836v45q0 14 11 16l66 11q66 12 125.5 22t62.5 10q7 0 12 -1.5t6 -2.5l2 -2l41 -45v-576q0 -42 8 -77t28 -69t60 -53.5t97 -19.5q75 0 156 55t87 115v326q0 66 -4 164q-3 42 -15 57.5t-44 15.5h-76q-10 0 -10 9v45q0 14 10 16l66 11q66 12 125.5 22t62.5 10 q7 0 12 -1.5t6 -2.5l2 -2l41 -45v-735q0 -39 10.5 -55.5t47.5 -16.5h39q12 0 12 -8v-43q0 -15 -10 -17q-52 -8 -104.5 -18.5t-79.5 -16.5t-29 -6l-21 7l-41 43v106q-1 0 -18.5 -18.5t-45 -41.5t-63.5 -46.5t-84.5 -39.5t-97.5 -16q-67 0 -135 28.5t-118 90.5t-50 143v361 q0 17 -6 164q-3 42 -14.5 57.5t-43.5 15.5h-75q-11 0 -11 9zM350 1075.5q1 4.5 2 7.5q18 19 91 156t79 156q11 21 21 28q2 1 15 5t26 7.5t20 4.5q4 1 7.5 -1t4.5 -5l2 -2q32 -76 90 -184t74 -130q10 -19 0 -24q-11 -11 -67 -25q-6 -3 -11.5 -3t-7.5 1t-5.5 4t-4.5 4 q-31 33 -119 191q-4 9 -7 10.5t-5 -0.5t-6 -8q-7 -15 -54 -91t-51 -83q-17 -31 -71 -31q-12 0 -18 4t-5 8.5z" />
<glyph unicode="&#xfc;" horiz-adv-x="1183" d="M61 836v45q0 14 11 16l66 11q66 12 125.5 22t62.5 10q7 0 12 -1.5t6 -2.5l2 -2l41 -45v-576q0 -42 8 -77t28 -69t60 -53.5t97 -19.5q75 0 156 55t87 115v326q0 66 -4 164q-3 42 -15 57.5t-44 15.5h-76q-10 0 -10 9v45q0 14 10 16l66 11q66 12 125.5 22t62.5 10 q7 0 12 -1.5t6 -2.5l2 -2l41 -45v-735q0 -39 10.5 -55.5t47.5 -16.5h39q12 0 12 -8v-43q0 -15 -10 -17q-52 -8 -104.5 -18.5t-79.5 -16.5t-29 -6l-21 7l-41 43v106q-1 0 -18.5 -18.5t-45 -41.5t-63.5 -46.5t-84.5 -39.5t-97.5 -16q-67 0 -135 28.5t-118 90.5t-50 143v361 q0 17 -6 164q-3 42 -14.5 57.5t-43.5 15.5h-75q-11 0 -11 9zM250 1249q0 45 24 64q25 22 80 26q15 3 38.5 -2.5t35.5 -19.5q12 -12 18.5 -34t4.5 -34q-2 -37 -29 -71q-12 -16 -37 -24.5t-43 -8.5q-41 0 -72 39q-20 30 -20 65zM664 1249q0 44 22 64q25 22 80 26 q15 3 38.5 -2.5t35.5 -19.5q13 -13 19 -34.5t3 -33.5q-2 -41 -26 -71q-12 -16 -37 -24.5t-43 -8.5q-41 0 -72 39q-20 26 -20 65z" />
<glyph unicode="&#xfd;" horiz-adv-x="1007" d="M-51 922q15 0 98.5 -3.5t140.5 -3.5q163 0 252 7q0 -21 -0.5 -28.5t-2 -21.5t-6.5 -19t-13 -5h-74q-16 0 -29.5 -7.5t-13.5 -19.5q0 -6 2 -10q131 -338 221 -586l226 561q10 25 -2.5 43.5t-38.5 18.5h-66q-13 0 -16.5 18t-3.5 56q29 -1 98.5 -4t107.5 -3q100 0 189 7 q0 -74 -21 -74h-59q-32 0 -57.5 -17.5t-36.5 -44.5l-438 -1095q-30 -75 -53 -114t-81 -105q-2 -2 -8.5 -9t-9 -9t-9 -4.5t-14.5 -2.5l-159 4q-3 0 -4.5 1.5t-1.5 3.5v1q-5 36 -5 97q0 6 9 6q146 10 155 12q20 4 28.5 11t16.5 22l156 383q-38 126 -171.5 468.5t-145.5 354.5 q-19 37 -70 37h-70q-13 0 -16.5 18t-3.5 56zM401 1128q3 4 29 70t51.5 132t26.5 67q5 13 29 16l141 -16q3 0 6 -3t2.5 -9.5t-6.5 -12.5q-202 -270 -221 -287q-8 -11 -21 -6q-8 6 -20.5 17.5t-14.5 13.5q-7 7 -2 18z" />
<glyph unicode="&#xff;" horiz-adv-x="1007" d="M-51 922q15 0 98.5 -3.5t140.5 -3.5q163 0 252 7q0 -21 -0.5 -28.5t-2 -21.5t-6.5 -19t-13 -5h-74q-16 0 -29.5 -7.5t-13.5 -19.5q0 -6 2 -10q131 -338 221 -586l226 561q10 25 -2.5 43.5t-38.5 18.5h-66q-13 0 -16.5 18t-3.5 56q29 -1 98.5 -4t107.5 -3q100 0 189 7 q0 -74 -21 -74h-59q-32 0 -57.5 -17.5t-36.5 -44.5l-438 -1095q-30 -75 -53 -114t-81 -105q-2 -2 -8.5 -9t-9 -9t-9 -4.5t-14.5 -2.5l-159 4q-3 0 -4.5 1.5t-1.5 3.5v1q-5 36 -5 97q0 6 9 6q146 10 155 12q20 4 28.5 11t16.5 22l156 383q-38 126 -171.5 468.5t-145.5 354.5 q-19 37 -70 37h-70q-13 0 -16.5 18t-3.5 56zM184 1247q0 44 25 64q25 22 80 26q15 3 37.5 -2.5t35.5 -19.5q12 -12 18.5 -34t4.5 -34q-2 -37 -29 -71q-12 -16 -37 -24.5t-43 -8.5q-40 0 -71 39q-21 32 -21 65zM598 1247q0 43 23 64q25 22 79 26q15 3 38.5 -2.5t35.5 -19.5 q13 -13 19.5 -35t3.5 -33q-2 -39 -27 -71q-12 -16 -37 -24.5t-43 -8.5q-41 0 -72 39q-20 26 -20 65z" />
<glyph unicode="&#x152;" horiz-adv-x="2158" d="M68 719q0 153 53 287t149 232.5t240 155t317 56.5q82 0 156 -18q69 -13 111 -15h718l37 -39q6 -4 6 -20l-10 -215q0 -8 -10 -8l-82 -5q-8 0 -8 9q-1 46 -5.5 75t-18 55t-41.5 38t-72 12h-322q-54 0 -57 -55v-486q3 -6 14 -6h320q127 0 127 82l8 64q2 16 28 22t52 -10 q-17 -111 -17 -203q0 -71 4 -223q-28 -14 -51.5 -6.5t-23.5 30.5v54q0 44 -39.5 68t-87.5 24h-320q-10 0 -14 -8v-512q11 -58 65 -58h371q53 0 89.5 22.5t76.5 102.5q15 30 31 107q3 10 14 6q2 0 72 -23q7 -3 8.5 -5t1.5 -9q-33 -200 -49 -272q-7 -17 -29 -19 q-76 -6 -248 -6h-483q-83 0 -131 -10q-2 -2 -6 -2l-25 -6q-89 -21 -182 -21q-152 0 -278 44.5t-209.5 118.5t-141 173t-83 205t-25.5 217zM301 791q0 -186 46.5 -328t127 -225.5t181 -124.5t218.5 -41q68 0 123 24q24 12 30.5 42.5t8.5 117.5q0 11 -1 34t-1 36v766 q0 58 -1.5 85.5t-11 55.5t-28.5 37q-43 22 -68.5 33t-72 20.5t-102.5 9.5q-142 0 -245.5 -74.5t-153.5 -195.5t-50 -272z" />
<glyph unicode="&#x153;" horiz-adv-x="1724" d="M43 436q0 136 59 251t172 185t256 70q261 0 369 -188q64 88 159 138t204 50q173 0 260.5 -110t87.5 -318l-629 -31q2 -178 84 -284.5t233 -106.5q48 0 80 3t84.5 21.5t98.5 53.5q50 -44 30 -64q-133 -133 -344 -133q-269 0 -379 195q-67 -91 -167 -143t-224 -52 q-112 0 -197 35.5t-136 99t-76 146t-25 182.5zM227 502q0 -119 34 -217.5t104 -160t163 -61.5q66 0 116.5 31t79 83.5t42.5 112t14 124.5q0 119 -34 217t-104 159.5t-163 61.5q-66 0 -116.5 -31t-79 -83t-42.5 -111.5t-14 -124.5zM983 557l447 39q0 62 -19.5 119.5t-67 100 t-114.5 42.5q-226 0 -246 -301z" />
<glyph unicode="&#x178;" horiz-adv-x="1286" d="M-20 1423q234 -6 286 -6q159 0 273 6q0 -82 -21 -82h-80q-22 0 -22 -18q0 -14 10 -37q125 -279 297 -579q78 122 182.5 318.5t126.5 260.5q14 30 -3.5 42.5t-53.5 12.5h-98q-21 0 -21 82q234 -6 260 -6q148 0 262 6q0 -82 -20 -82h-80q-53 0 -100 -55 q-47 -57 -117 -172.5t-161 -276.5t-122 -214q-8 -21 -8 -172q0 -191 6 -261q4 -56 26 -85t56 -29h96q21 0 21 -82q-114 6 -316 6q-67 0 -301 -6q0 82 21 82h104q33 0 60.5 30.5t27.5 83.5q0 41 2 143.5t2 172.5q0 78 -20 119l-29 55q-237 471 -336 606q-35 55 -92 55h-98 q-20 0 -20 82zM418 1591q0 45 24 64q25 22 80 26q15 3 38.5 -2.5t35.5 -19.5q12 -12 18 -33.5t4 -34.5q-2 -38 -28 -71q-12 -16 -37 -24.5t-43 -8.5q-41 0 -72 39q-20 30 -20 65zM831 1591q0 43 23 64q25 22 80 26q15 3 38.5 -2.5t35.5 -19.5q13 -13 19 -34.5t3 -33.5 q-2 -41 -26 -71q-12 -16 -37 -24.5t-43 -8.5q-41 0 -72 39q-21 27 -21 65z" />
<glyph unicode="&#x2c6;" horiz-adv-x="931" d="M286 1083.5q0 4.5 3 8.5q18 19 91 156t79 155q12 23 20 29q2 0 15 4t26.5 7.5t20.5 4.5q4 1 7.5 -1t5.5 -5l1 -2q32 -76 90 -184t74 -130q10 -19 0 -24q-11 -11 -68 -25q-6 -3 -11 -3t-7.5 1.5t-5.5 4t-4 3.5q-31 33 -119 191q-4 9 -7.5 10.5t-5.5 -0.5t-6 -8 q-7 -15 -54 -92t-50 -82q-17 -31 -72 -31q-12 0 -17.5 4t-5.5 8.5z" />
<glyph unicode="&#x2dc;" horiz-adv-x="1005" d="M281 1145q0 38 10 55q25 40 90.5 80.5t107.5 40.5q37 0 107.5 -27.5t110.5 -27.5q78 0 153 75q16 14 16 -14q-1 -13 -4 -31q-9 -32 -63 -75q-89 -66 -160 -66q-37 0 -107 25.5t-110 25.5q-25 0 -50 -11t-39.5 -22t-41.5 -34q-16 -14 -20 6z" />
<glyph unicode="&#x2000;" horiz-adv-x="933" />
<glyph unicode="&#x2001;" horiz-adv-x="1866" />
<glyph unicode="&#x2002;" horiz-adv-x="933" />
<glyph unicode="&#x2003;" horiz-adv-x="1866" />
<glyph unicode="&#x2004;" horiz-adv-x="622" />
<glyph unicode="&#x2005;" horiz-adv-x="466" />
<glyph unicode="&#x2006;" horiz-adv-x="311" />
<glyph unicode="&#x2007;" horiz-adv-x="311" />
<glyph unicode="&#x2008;" horiz-adv-x="233" />
<glyph unicode="&#x2009;" horiz-adv-x="373" />
<glyph unicode="&#x200a;" horiz-adv-x="103" />
<glyph unicode="&#x2010;" horiz-adv-x="688" d="M133 475q1 13 13.5 58.5t17.5 54.5q0 4 18 2q37 -2 420 -2q8 -8 4 -21q-3 -16 -18 -60.5t-23 -47.5l-426 -2q-3 0 -5.5 7.5t-0.5 10.5z" />
<glyph unicode="&#x2011;" horiz-adv-x="688" d="M133 475q1 13 13.5 58.5t17.5 54.5q0 4 18 2q37 -2 420 -2q8 -8 4 -21q-3 -16 -18 -60.5t-23 -47.5l-426 -2q-3 0 -5.5 7.5t-0.5 10.5z" />
<glyph unicode="&#x2012;" horiz-adv-x="688" d="M133 475q1 13 13.5 58.5t17.5 54.5q0 4 18 2q37 -2 420 -2q8 -8 4 -21q-3 -16 -18 -60.5t-23 -47.5l-426 -2q-3 0 -5.5 7.5t-0.5 10.5z" />
<glyph unicode="&#x2013;" horiz-adv-x="1060" d="M78 478v3q8 61 18 92q4 7 10 7q9 2 392 2.5t454 -0.5q11 0 11 -9v-6q0 -21 -6 -59t-11 -39q-11 -3 -425.5 -3.5t-436.5 1.5q-4 0 -5 3.5t-1 7.5z" />
<glyph unicode="&#x2014;" horiz-adv-x="2086" d="M78 478v3q8 61 18 92q4 7 10 7q9 2 894 2.5t956 -0.5q10 0 10 -9v-6q0 -21 -5.5 -59t-10.5 -39q-11 -3 -927.5 -3.5t-938.5 1.5q-4 0 -5 3.5t-1 7.5z" />
<glyph unicode="&#x2018;" horiz-adv-x="444" d="M39 1110q0 70 18 115q19 46 59.5 88.5t81.5 68t71.5 41t41.5 17.5h4q12 0 29.5 -12.5t17.5 -22.5q0 -9 -18 -16q-77 -36 -122.5 -87.5t-45.5 -101.5q0 -53 55 -90q8 -6 19 -13l16.5 -10.5t12.5 -8t10 -7.5t6 -6.5t3.5 -6t0.5 -5.5q-6 -39 -117 -111q-31 -19 -53 0 q-45 37 -67.5 73.5t-22.5 94.5z" />
<glyph unicode="&#x2019;" horiz-adv-x="419" d="M63 977q0 8 19 16q77 36 122.5 87.5t45.5 101.5q0 53 -55 90q-8 6 -19 13l-16.5 10.5t-12.5 8t-10 7.5t-6 6.5t-3.5 6t-0.5 5.5q6 39 117 111q31 19 53 0q45 -37 67.5 -73.5t22.5 -94.5q0 -70 -18 -115q-19 -46 -59.5 -88.5t-81.5 -68t-71.5 -41t-41.5 -17.5h-4 q-13 0 -30.5 12.5t-17.5 22.5z" />
<glyph unicode="&#x201a;" horiz-adv-x="567" d="M74 -309q-2 6 18 18q118 76 166.5 131.5t48.5 122.5q0 52 -33 96q-53 73 -62.5 94t1.5 33q12 20 60 65.5t75 63.5q36 22 55 -6q54 -72 54 -227q0 -59 -11 -102q-16 -67 -53.5 -124.5t-78 -91.5t-84.5 -59.5t-69 -35t-36 -11.5q-10 -3 -29 9.5t-22 23.5z" />
<glyph unicode="&#x201c;" horiz-adv-x="714" d="M20 1110q0 68 19 115q19 46 59.5 88.5t81.5 68t71.5 41t41.5 17.5h4q12 0 29.5 -12.5t17.5 -22.5q0 -9 -18 -16q-77 -36 -122.5 -87.5t-45.5 -101.5q0 -53 55 -90q8 -6 19 -13l16.5 -10.5t12.5 -8t10 -7.5t6 -6.5t3.5 -6t0.5 -5.5q-6 -39 -117 -111q-31 -19 -53 0 q-45 38 -68 74t-23 94zM362 1110q0 68 19 115q19 46 59.5 88.5t81.5 68t71.5 41t41.5 17.5h4q12 0 29.5 -12.5t17.5 -22.5q0 -9 -18 -16q-77 -36 -122.5 -87.5t-45.5 -101.5q0 -53 55 -90q8 -6 19 -13l16.5 -10.5t12.5 -8t10 -7.5t6 -6.5t3.5 -6t0.5 -5.5q-6 -39 -117 -111 q-31 -19 -53 0q-45 38 -68 74t-23 94z" />
<glyph unicode="&#x201d;" horiz-adv-x="757" d="M20 977q0 8 19 16q77 36 122.5 87.5t45.5 101.5q0 53 -55 90q-8 6 -19 13l-16.5 10.5t-12.5 8t-10 7.5t-6 6.5t-3.5 6t-0.5 5.5q6 39 117 111q31 19 53 0q45 -37 67.5 -73.5t22.5 -94.5q0 -70 -18 -115q-19 -46 -59.5 -88.5t-81.5 -68t-71.5 -41t-41.5 -17.5h-4 q-12 0 -30 12.5t-18 22.5zM362 977q0 8 19 16q77 36 122.5 87.5t45.5 101.5q0 53 -55 90q-8 6 -19 13l-16.5 10.5t-12.5 8t-10 7.5t-6 6.5t-3.5 6t-0.5 5.5q6 39 117 111q31 19 53 0q45 -37 67.5 -73.5t22.5 -94.5q0 -70 -18 -115q-19 -46 -59.5 -88.5t-81.5 -68t-71.5 -41 t-41.5 -17.5h-4q-12 0 -30 12.5t-18 22.5z" />
<glyph unicode="&#x201e;" horiz-adv-x="950" d="M74 -309q-2 6 18 18q118 76 166.5 131.5t48.5 122.5q0 52 -33 96q-53 73 -62.5 94t1.5 33q12 20 60 65.5t75 63.5q36 22 55 -6q54 -72 54 -227q0 -59 -11 -102q-16 -67 -53.5 -124.5t-78 -91.5t-84.5 -59.5t-69 -35t-36 -11.5q-10 -3 -29 9.5t-22 23.5zM442 -309 q-1 4 3.5 8t13.5 9q1 1 2 1q118 76 166.5 131.5t48.5 122.5q0 52 -33 96q-53 73 -62.5 94t1.5 33q12 20 60 65.5t75 63.5q36 22 55 -6q53 -70 53 -227q0 -63 -10 -102q-16 -67 -53.5 -124.5t-78 -91.5t-84.5 -59.5t-69 -35t-36 -11.5q-10 -3 -29.5 9.5t-22.5 23.5z" />
<glyph unicode="&#x2022;" horiz-adv-x="686" d="M102 451q0 94 72 163q67 64 160 64q97 0 158 -55q65 -60 65 -177q0 -104 -61 -165q-64 -64 -172 -64q-38 0 -84 15.5t-74 43.5q-64 67 -64 175z" />
<glyph unicode="&#x2026;" horiz-adv-x="1720" d="M97 133q3 17 20 41q21 29 69 33q39 4 69.5 -5.5t43.5 -25.5q17 -22 14 -94q-4 -50 -24 -68q-18 -17 -38 -21.5t-65 -4.5q-46 0 -71 32q-10 12 -17 60q-4 36 -1 53zM712 133q3 18 19 41q21 29 70 33q39 4 69 -5.5t43 -25.5q18 -24 15 -94q-4 -49 -25 -68 q-18 -17 -37.5 -21.5t-64.5 -4.5q-20 0 -40.5 9t-31.5 23q-9 11 -16 60q-4 35 -1 53zM1326 133q3 17 20 41q21 29 69 33q39 4 69.5 -5.5t43.5 -25.5q17 -22 14 -94q-4 -50 -24 -68q-18 -17 -38 -21.5t-65 -4.5q-20 0 -40.5 9t-31.5 23q-9 11 -16 60q-4 36 -1 53z" />
<glyph unicode="&#x202f;" horiz-adv-x="373" />
<glyph unicode="&#x2039;" horiz-adv-x="860" d="M89.5 451.5q3.5 23.5 19.5 29.5q109 46 294.5 161.5t276.5 184.5q12 9 12 -8q0 -58 -12 -82q-4 -8 -8 -8q-57 -49 -176.5 -134t-192.5 -132q-10 -7 0 -12q74 -47 213.5 -144t192.5 -137q5 -4 -9.5 -36t-25.5 -50q-7 -10 -10 -4q-36 44 -252.5 173.5t-315.5 168.5 q-10 6 -6.5 29.5z" />
<glyph unicode="&#x203a;" horiz-adv-x="860" d="M92 170q53 40 192.5 137t213.5 144q10 5 0 12q-73 47 -192.5 132t-176.5 134q-4 0 -8 8q-12 24 -12 82q0 17 12 8q91 -69 276.5 -184.5t294.5 -161.5q16 -6 19.5 -29.5t-6.5 -29.5q-99 -39 -315.5 -168.5t-252.5 -173.5q-3 -6 -10 4q-11 18 -25.5 50t-9.5 36z" />
<glyph unicode="&#x205f;" horiz-adv-x="466" />
<glyph unicode="&#x20ac;" horiz-adv-x="1046" d="M-84 561q0 25 14 74q3 6 11 6q20 -2 94 -2v119h-98q-2 0 -4 7.5t-1 10.5q1 11 19 64q0 2 10 2q14 -2 82 -2q12 85 36.5 162.5t67 150t98 125.5t134 85t170.5 32q33 0 63 -6q46 -6 97.5 -19t79.5 -23l28 -10l41 -41q8 -4 8 -20q0 -6 -6.5 -95t-7.5 -98q-2 -8 -12 -8h-64 q-14 0 -14 8q-3 21 -17 68q-23 70 -92 121q-62 47 -153 47q-76 0 -140 -63t-102.5 -172t-46.5 -244h418q4 -2 4 -11q-1 -1 -6 -18t-10.5 -33.5t-8.5 -19.5h-399q0 -80 4 -119h395q2 -1 2 -21q0 -11 -9.5 -37t-12.5 -28h-367q13 -105 39 -190.5t68 -156.5t106.5 -110 t145.5 -39q63 0 103.5 13.5t67 48.5t40.5 74t32 112q3 10 15 6q20 -4 51 -14q7 -3 8.5 -5t1.5 -9q-22 -172 -45 -238q-1 -4 -4 -6t-5 -3.5t-9 -4t-11 -4.5q-65 -28 -116 -41t-123 -13q-138 0 -239 40t-164 118t-97 181t-45 241h-123q-2 0 -2 8z" />
<glyph unicode="&#x2122;" horiz-adv-x="1005" d="M61 1331v4l2 70l11 10h329l13 -10v-72q0 -2 -6 -2h-19v2q-6 23 -9.5 31.5t-11 16t-20.5 8.5h-80q-6 0 -6 -3v-325q0 -14 27 -14h26q9 0 9 -23q-23 2 -90 2q-12 0 -44.5 -1t-39.5 -1q0 23 2 23h32q27 0 27 14v325q0 3 -2 3h-80q-39 0 -45 -56q0 -2 -4 -2h-21zM457 1024 q0 23 6 23h26q21 0 29 24h39q0 -12 10.5 -18t22.5 -6h24q7 0 7 -23q-9 0 -39.5 1t-44.5 1t-41.5 -1t-38.5 -1zM471 1417q9 0 37 -1t41 -1h35l139 -305q8 18 21.5 47t42 91.5t47.5 103.5t18 41l12 24h103q0 -22 -4 -22h-29q-7 0 -15 -4.5t-8 -10.5l9 -319q0 -6 6.5 -10 t13.5 -4h27q6 0 6 -23q-11 0 -40.5 1t-43.5 1t-42.5 -1t-37.5 -1q0 23 6 23h27q7 0 13.5 4t6.5 10q2 24 -4 272l-141 -307h-10l-152 328q0 -14 -1 -78.5t-1 -101.5q0 -79 4 -103h-39q4 15 7 91.5t4 145.5l1 70q0 8 -9 12.5t-17 4.5h-27q-6 0 -6 22z" />
<glyph unicode="&#x25fc;" horiz-adv-x="921" d="M0 0v922h922v-922h-922z" />
</font>
</defs>
</svg>
